<?xml version="1.0" encoding="UTF-8" standalone="no"?>
<svg
   xmlns:dc="http://purl.org/dc/elements/1.1/"
   xmlns:cc="http://creativecommons.org/ns#"
   xmlns:rdf="http://www.w3.org/1999/02/22-rdf-syntax-ns#"
   xmlns:svg="http://www.w3.org/2000/svg"
   xmlns="http://www.w3.org/2000/svg"
   xmlns:sodipodi="http://sodipodi.sourceforge.net/DTD/sodipodi-0.dtd"
   xmlns:inkscape="http://www.inkscape.org/namespaces/inkscape"
   version="1.1"
   id="Layer_1"
   x="0px"
   y="0px"
   width="100px"
   height="100px"
   viewBox="0 0 100 100"
   enable-background="new 0 0 100 100"
   xml:space="preserve"
   inkscape:version="0.47pre4 r22446"
   sodipodi:docname="logo_front_page.svg"><metadata
   id="metadata9"><rdf:RDF><cc:Work
       rdf:about=""><dc:format>image/svg+xml</dc:format><dc:type
         rdf:resource="http://purl.org/dc/dcmitype/StillImage" /><dc:title /></cc:Work></rdf:RDF></metadata><defs
   id="defs7"><inkscape:perspective
     sodipodi:type="inkscape:persp3d"
     inkscape:vp_x="0 : 50 : 1"
     inkscape:vp_y="0 : 1000 : 0"
     inkscape:vp_z="100 : 50 : 1"
     inkscape:persp3d-origin="50 : 33.333333 : 1"
     id="perspective11" /></defs><sodipodi:namedview
   pagecolor="#ffffff"
   bordercolor="#666666"
   borderopacity="1"
   objecttolerance="10"
   gridtolerance="10"
   guidetolerance="10"
   inkscape:pageopacity="0"
   inkscape:pageshadow="2"
   inkscape:window-width="1268"
   inkscape:window-height="765"
   id="namedview5"
   showgrid="false"
   inkscape:zoom="1.4142136"
   inkscape:cx="1048.1761"
   inkscape:cy="-565.12697"
   inkscape:window-x="44"
   inkscape:window-y="0"
   inkscape:window-maximized="0"
   inkscape:current-layer="Layer_1" />
<rect
   style="fill:#ffff00;fill-opacity:1;stroke:none"
   id="rect3829"
   width="70"
   height="70"
   x="330.6315"
   y="709.2887"
   rx="0.46024668"
   ry="0.36332107"
   inkscape:export-filename="/Users/neal/Desktop/favico.png"
   inkscape:export-xdpi="144.53"
   inkscape:export-ydpi="144.53" /><path
   d="m -124.592,154.754 c -0.115,-0.517 -0.683,-1.011 -1.643,-1.472 -0.362,-2.297 -9.197,-4.174 -20.603,-4.472 l 0,-99.613 1.086,0 0,-6.927 -1.633,0 0,-57.276 c 2.409,1.571 5.948,1.081 8.422,-1.339 l 7.395,-7.233 c 2.802,-2.738 3.171,-6.901 0.829,-9.296 l -2.614,-2.671 -7.666,7.497 -2.121,-2.17 7.667,-7.497 -2.106,-2.153 -7.682,7.512 -2.123,-2.167 7.684,-7.514 -2.12,-2.17 -7.684,7.514 -2.121,-2.17 7.681,-7.514 -2.12,-2.168 -7.682,7.513 -2.122,-2.17 7.684,-7.513 -2.598,-2.655 c -2.344,-2.396 -6.514,-2.119 -9.314,0.62 l -7.395,7.231 c -2.8,2.74 -3.17,6.902 -0.827,9.297 l 2.581,2.639 7.744,-7.573 2.121,2.168 -7.744,7.573 2.122,2.17 7.744,-7.573 2.122,2.168 -7.745,7.575 2.122,2.168 4.634,-4.532 0,4.243 -2.514,2.459 2.121,2.168 0.393,-0.384 0,63.223 -1.632,0 0,6.927 1.088,0 0,99.614 c -11.405,0.298 -20.24,2.173 -20.604,4.472 -0.96,0.46 -1.529,0.955 -1.644,1.472 -1.042,0.495 -1.639,1.027 -1.639,1.585 0.001,2.575 12.11,4.66 27.048,4.66 14.937,0 27.047,-2.086 27.047,-4.661 0,-0.557 -0.596,-1.089 -1.639,-1.585 z m -22.792,-180.822 2.12,-2.072 2.12,2.168 -4.24,4.147 0,-4.243 z m -2.123,-6.411 0.032,0.033 -0.065,0 0.033,-0.033 z"
   id="path3"
   sodipodi:nodetypes="ccccccccccccccccccccccccccccccccccccccccccccccccccccssscccccccccc" />
<text
   xml:space="preserve"
   style="font-size:40px;font-style:normal;font-variant:normal;font-weight:normal;font-stretch:normal;fill:#000000;fill-opacity:1;stroke:none;font-family:LT Chickenhawk;-inkscape-font-specification:LT Chickenhawk"
   x="-296"
   y="60"
   id="text2817"><tspan
     sodipodi:role="line"
     id="tspan2819"
     x="-296"
     y="60"
     style="font-size:48px;font-style:normal;font-variant:normal;font-weight:bold;font-stretch:normal;font-family:Market Deco;-inkscape-font-specification:Market Deco Bold">Laugh    </tspan></text>


<text
   xml:space="preserve"
   style="font-size:42px;font-style:normal;font-variant:normal;font-weight:normal;font-stretch:normal;fill:#000000;fill-opacity:1;stroke:none;font-family:LT Chickenhawk;-inkscape-font-specification:LT Chickenhawk"
   x="-133"
   y="60.070312"
   id="text3605"><tspan
     sodipodi:role="line"
     id="tspan3607"
     x="-133"
     y="60.070312"
     style="font-size:48px;font-style:normal;font-variant:normal;font-weight:normal;font-stretch:normal;font-family:Market Deco;-inkscape-font-specification:Market Deco">@ me</tspan></text>


<path
   sodipodi:nodetypes="ccccccccccccccccccccccccccccccccccccccccccccccccccccssscccccccccc"
   id="path3619"
   d="m -124.34875,-93.11732 c -0.115,-0.517 -0.683,-1.011 -1.643,-1.472 -0.362,-2.297 -9.197,-4.174 -20.603,-4.472 l 0,-99.613 1.086,0 0,-6.927 -1.633,0 0,-57.276 c 2.409,1.571 5.948,1.081 8.422,-1.339 l 7.395,-7.233 c 2.802,-2.738 3.171,-6.901 0.829,-9.296 l -2.614,-2.671 -7.666,7.497 -2.121,-2.17 7.667,-7.497 -2.106,-2.153 -7.682,7.512 -2.123,-2.167 7.684,-7.514 -2.12,-2.17 -7.684,7.514 -2.121,-2.17 7.681,-7.514 -2.12,-2.168 -7.682,7.513 -2.122,-2.17 7.684,-7.513 -2.598,-2.655 c -2.344,-2.396 -6.514,-2.119 -9.314,0.62 l -7.395,7.231 c -2.8,2.74 -3.17,6.902 -0.827,9.297 l 2.581,2.639 7.744,-7.573 2.121,2.168 -7.744,7.573 2.122,2.17 7.744,-7.573 2.122,2.168 -7.745,7.575 2.122,2.168 4.634,-4.532 0,4.243 -2.514,2.459 2.121,2.168 0.393,-0.384 0,63.223 -1.632,0 0,6.927 1.088,0 0,99.614 c -11.405,0.298 -20.24,2.173 -20.604,4.472 -0.96,0.46 -1.529,0.955 -1.644,1.472 -1.042,0.495 -1.639,1.027 -1.639,1.585 0.001,2.575 12.11,4.66 27.048,4.66 14.937,0 27.047,-2.086 27.047,-4.661 0,-0.557 -0.596,-1.089 -1.639,-1.585 z m -22.792,-180.822 2.12,-2.072 2.12,2.168 -4.24,4.147 0,-4.243 z m -2.123,-6.411 0.032,0.033 -0.065,0 0.033,-0.033 z" /><text
   id="text3621"
   y="-169.41422"
   x="-264.75674"
   style="font-size:40px;font-style:normal;font-variant:normal;font-weight:normal;font-stretch:normal;fill:#000000;fill-opacity:1;stroke:none;font-family:LT Chickenhawk;-inkscape-font-specification:LT Chickenhawk"
   xml:space="preserve"><tspan
     style="font-size:48px;font-style:normal;font-variant:normal;font-weight:bold;font-stretch:normal;font-family:Market Deco;-inkscape-font-specification:Market Deco Bold"
     y="-169.41422"
     x="-264.75674"
     id="tspan3623"
     sodipodi:role="line">Laugh    </tspan></text>


<text
   id="text3625"
   y="-169.78922"
   x="-125.75674"
   style="font-size:42px;font-style:normal;font-variant:normal;font-weight:normal;font-stretch:normal;fill:#000000;fill-opacity:1;stroke:none;font-family:LT Chickenhawk;-inkscape-font-specification:LT Chickenhawk"
   xml:space="preserve"><tspan
     style="font-size:48px;font-style:normal;font-variant:normal;font-weight:normal;font-stretch:normal;font-family:Market Deco;-inkscape-font-specification:Market Deco"
     y="-169.78922"
     x="-125.75674"
     id="tspan3627"
     sodipodi:role="line">@</tspan></text>


<text
   xml:space="preserve"
   style="font-size:42px;font-style:normal;font-variant:normal;font-weight:normal;font-stretch:normal;fill:#000000;fill-opacity:1;stroke:none;font-family:LT Chickenhawk;-inkscape-font-specification:LT Chickenhawk"
   x="-85.209015"
   y="-169.3439"
   id="text3629"><tspan
     sodipodi:role="line"
     id="tspan3631"
     x="-85.209015"
     y="-169.3439"
     style="font-size:48px;font-style:normal;font-variant:normal;font-weight:normal;font-stretch:normal;font-family:Market Deco;-inkscape-font-specification:Market Deco">me</tspan></text>


<path
   sodipodi:nodetypes="ccccccccccccccccccccccccccccccccccccccccccccccccccccssscccccccccc"
   id="path3633"
   d="m 201.40295,-88.57843 c -0.115,-0.517 -0.683,-1.011 -1.643,-1.472 -0.362,-2.297 -9.197,-4.174 -20.603,-4.472 l 0,-99.613 1.086,0 0,-6.927 -1.633,0 0,-57.276 c 2.409,1.571 5.948,1.081 8.422,-1.339 l 7.395,-7.233 c 2.802,-2.738 3.171,-6.901 0.829,-9.296 l -2.614,-2.671 -7.666,7.497 -2.121,-2.17 7.667,-7.497 -2.106,-2.153 -7.682,7.512 -2.123,-2.167 7.684,-7.514 -2.12,-2.17 -7.684,7.514 -2.121,-2.17 7.681,-7.514 -2.12,-2.168 -7.682,7.513 -2.122,-2.17 7.684,-7.513 -2.598,-2.655 c -2.344,-2.396 -6.514,-2.119 -9.314,0.62 l -7.395,7.231 c -2.8,2.74 -3.17,6.902 -0.827,9.297 l 2.581,2.639 7.744,-7.573 2.121,2.168 -7.744,7.573 2.122,2.17 7.744,-7.573 2.122,2.168 -7.745,7.575 2.122,2.168 4.634,-4.532 0,4.243 -2.514,2.459 2.121,2.168 0.393,-0.384 0,63.223 -1.632,0 0,6.927 1.088,0 0,99.614 c -11.405,0.298 -20.24,2.173 -20.604,4.472 -0.96,0.46 -1.529,0.955 -1.644,1.472 -1.042,0.495 -1.639,1.027 -1.639,1.585 0.001,2.575 12.11,4.66 27.048,4.66 14.937,0 27.047,-2.086 27.047,-4.661 0,-0.557 -0.596,-1.089 -1.639,-1.585 z m -22.792,-180.822 2.12,-2.072 2.12,2.168 -4.24,4.147 0,-4.243 z m -2.123,-6.411 0.032,0.033 -0.065,0 0.033,-0.033 z" /><text
   id="text3635"
   y="-208.78825"
   x="189.03023"
   style="font-size:40px;font-style:normal;font-variant:normal;font-weight:normal;font-stretch:normal;fill:#000000;fill-opacity:1;stroke:none;font-family:LT Chickenhawk;-inkscape-font-specification:LT Chickenhawk"
   xml:space="preserve"><tspan
     style="font-size:48px;font-style:normal;font-variant:normal;font-weight:bold;font-stretch:normal;font-family:Market Deco;-inkscape-font-specification:Market Deco Bold"
     y="-208.78825"
     x="189.03023"
     id="tspan3637"
     sodipodi:role="line">Site Title</tspan></text>


<rect
   style="fill:none;stroke:#000000;stroke-width:2.23752117;stroke-linecap:round;stroke-linejoin:round;stroke-miterlimit:4;stroke-opacity:1;stroke-dasharray:2.2375212, 2.2375212;stroke-dashoffset:0"
   id="rect3639"
   width="221.703"
   height="39.360458"
   x="121.28642"
   y="81.017883"
   rx="0.62958914"
   ry="0.49700084" /><rect
   ry="0.49704802"
   rx="0.62742865"
   y="81.016022"
   x="350.63919"
   height="39.364197"
   width="220.94221"
   id="rect3641"
   style="fill:none;stroke:#000000;stroke-width:2.23378491;stroke-linecap:round;stroke-linejoin:round;stroke-miterlimit:4;stroke-opacity:1;stroke-dasharray:2.23378486, 2.23378486;stroke-dashoffset:0" /><g
   id="g3649"
   transform="translate(-69,-244)"><path
   sodipodi:nodetypes="ccccccccccccccccccccccccccccccccccccccccccccccccccccssscccccccccc"
   id="path3643"
   d="m 335.25424,313.76642 c -0.115,-0.517 -0.683,-1.011 -1.643,-1.472 -0.362,-2.297 -9.197,-4.174 -20.603,-4.472 l 0,-31.613 1.086,0 0,-6.927 -1.633,0 0,-13.276 c 2.409,1.571 5.948,1.081 8.422,-1.339 l 7.395,-7.233 c 2.802,-2.738 3.171,-6.901 0.829,-9.296 l -2.614,-2.671 -7.666,7.497 -2.121,-2.17 7.667,-7.497 -2.106,-2.153 -7.682,7.512 -2.123,-2.167 7.684,-7.514 -2.12,-2.17 -7.684,7.514 -2.121,-2.17 7.681,-7.514 -2.12,-2.168 -7.682,7.513 -2.122,-2.17 7.684,-7.513 -2.598,-2.655 c -2.344,-2.396 -6.514,-2.119 -9.314,0.62 l -7.395,7.231 c -2.8,2.74 -3.17,6.902 -0.827,9.297 l 2.581,2.639 7.744,-7.573 2.121,2.168 -7.744,7.573 2.122,2.17 7.744,-7.573 2.122,2.168 -7.745,7.575 2.122,2.168 4.634,-4.532 0,4.243 -2.514,2.459 2.121,2.168 0.393,-0.384 0,19.223 -1.632,0 0,6.927 1.088,0 0,31.614 c -11.405,0.298 -20.24,2.173 -20.604,4.472 -0.96,0.46 -1.529,0.955 -1.644,1.472 -1.042,0.495 -1.639,1.027 -1.639,1.585 10e-4,2.575 12.11,4.66 27.048,4.66 14.937,0 27.047,-2.086 27.047,-4.661 0,-0.557 -0.596,-1.089 -1.639,-1.585 z m -22.792,-68.822 2.12,-2.072 2.12,2.168 -4.24,4.147 0,-4.243 z m -2.123,-6.411 0.032,0.033 -0.065,0 0.033,-0.033 z" /><text
   transform="scale(0.98065628,1.0197253)"
   id="text3645"
   y="279.85916"
   x="353.02713"
   style="font-size:39.22624969px;font-style:normal;font-variant:normal;font-weight:normal;font-stretch:normal;fill:#000000;fill-opacity:1;stroke:none;font-family:LT Chickenhawk;-inkscape-font-specification:LT Chickenhawk"
   xml:space="preserve"><tspan
     style="font-size:47.07150269px;font-style:normal;font-variant:normal;font-weight:bold;font-stretch:normal;font-family:Market Deco;-inkscape-font-specification:Market Deco Bold"
     y="279.85916"
     x="353.02713"
     id="tspan3647"
     sodipodi:role="line">JokeTi.ME</tspan></text>


</g><text
   xml:space="preserve"
   style="font-size:40px;font-style:normal;font-variant:normal;font-weight:normal;font-stretch:normal;fill:#000000;fill-opacity:1;stroke:none;font-family:LT Chickenhawk;-inkscape-font-specification:LT Chickenhawk"
   x="128.29333"
   y="106.76108"
   id="text3654"><tspan
     sodipodi:role="line"
     id="tspan3656"
     x="128.29333"
     y="106.76108"
     style="font-size:28px;font-style:normal;font-variant:normal;font-weight:normal;font-stretch:normal;font-family:Candara;-inkscape-font-specification:Candara">blerg@blerg.com</tspan></text>


<text
   id="text3658"
   y="112.8772"
   x="354.5899"
   style="font-size:40px;font-style:normal;font-variant:normal;font-weight:normal;font-stretch:normal;fill:#000000;fill-opacity:1;stroke:none;font-family:LT Chickenhawk;-inkscape-font-specification:LT Chickenhawk"
   xml:space="preserve"><tspan
     style="font-size:28px;font-style:normal;font-variant:normal;font-weight:normal;font-stretch:normal;font-family:Candara;-inkscape-font-specification:Candara"
     y="112.8772"
     x="354.5899"
     id="tspan3660"
     sodipodi:role="line">***************</tspan></text>


<g
   transform="translate(-63.050614,39.348605)"
   id="g3666"><path
   d="m 335.25424,313.76642 c -0.115,-0.517 -0.683,-1.011 -1.643,-1.472 -0.362,-2.297 -9.197,-4.174 -20.603,-4.472 l 0,-31.613 1.086,0 0,-6.927 -1.633,0 0,-13.276 c 2.409,1.571 5.948,1.081 8.422,-1.339 l 7.395,-7.233 c 2.802,-2.738 3.171,-6.901 0.829,-9.296 l -2.614,-2.671 -7.666,7.497 -2.121,-2.17 7.667,-7.497 -2.106,-2.153 -7.682,7.512 -2.123,-2.167 7.684,-7.514 -2.12,-2.17 -7.684,7.514 -2.121,-2.17 7.681,-7.514 -2.12,-2.168 -7.682,7.513 -2.122,-2.17 7.684,-7.513 -2.598,-2.655 c -2.344,-2.396 -6.514,-2.119 -9.314,0.62 l -7.395,7.231 c -2.8,2.74 -3.17,6.902 -0.827,9.297 l 2.581,2.639 7.744,-7.573 2.121,2.168 -7.744,7.573 2.122,2.17 7.744,-7.573 2.122,2.168 -7.745,7.575 2.122,2.168 4.634,-4.532 0,4.243 -2.514,2.459 2.121,2.168 0.393,-0.384 0,19.223 -1.632,0 0,6.927 1.088,0 0,31.614 c -11.405,0.298 -20.24,2.173 -20.604,4.472 -0.96,0.46 -1.529,0.955 -1.644,1.472 -1.042,0.495 -1.639,1.027 -1.639,1.585 10e-4,2.575 12.11,4.66 27.048,4.66 14.937,0 27.047,-2.086 27.047,-4.661 0,-0.557 -0.596,-1.089 -1.639,-1.585 z m -22.792,-68.822 2.12,-2.072 2.12,2.168 -4.24,4.147 0,-4.243 z m -2.123,-6.411 0.032,0.033 -0.065,0 0.033,-0.033 z"
   id="path3668"
   sodipodi:nodetypes="ccccccccccccccccccccccccccccccccccccccccccccccccccccssscccccccccc" /><text
   xml:space="preserve"
   style="font-size:39.22624969px;font-style:normal;font-variant:normal;font-weight:normal;font-stretch:normal;fill:#000000;fill-opacity:1;stroke:none;font-family:LT Chickenhawk;-inkscape-font-specification:LT Chickenhawk"
   x="353.02713"
   y="279.85916"
   id="text3670"
   transform="scale(0.98065628,1.0197253)"><tspan
     sodipodi:role="line"
     id="tspan3672"
     x="353.02713"
     y="279.85916"
     style="font-size:47.07150269px;font-style:normal;font-variant:normal;font-weight:bold;font-stretch:normal;font-family:Market Deco;-inkscape-font-specification:Market Deco Bold">JokE Time</tspan></text>


</g><rect
   ry="0.49704802"
   rx="0.62742865"
   y="136.48682"
   x="238.22629"
   height="39.364197"
   width="220.94221"
   id="rect3682"
   style="fill:none;stroke:#000000;stroke-width:2.23378491;stroke-linecap:round;stroke-linejoin:round;stroke-miterlimit:4;stroke-opacity:1;stroke-dasharray:2.23378486, 2.23378486;stroke-dashoffset:0" /><rect
   ry="0.49700084"
   rx="0.62958914"
   y="-192.98212"
   x="192.96149"
   height="39.360458"
   width="221.703"
   id="rect3684"
   style="fill:none;stroke:#000000;stroke-width:2.23752117;stroke-linecap:round;stroke-linejoin:round;stroke-miterlimit:4;stroke-opacity:1;stroke-dasharray:2.2375212, 2.2375212;stroke-dashoffset:0" /><rect
   style="fill:none;stroke:#000000;stroke-width:2.23378491;stroke-linecap:round;stroke-linejoin:round;stroke-miterlimit:4;stroke-opacity:1;stroke-dasharray:2.23378486, 2.23378486;stroke-dashoffset:0"
   id="rect3686"
   width="220.94221"
   height="39.364197"
   x="192.95963"
   y="-142.98398"
   rx="0.62742865"
   ry="0.49704802" /><text
   id="text3688"
   y="-166.23892"
   x="198.8067"
   style="font-size:40px;font-style:normal;font-variant:normal;font-weight:normal;font-stretch:normal;fill:#000000;fill-opacity:1;stroke:none;font-family:LT Chickenhawk;-inkscape-font-specification:LT Chickenhawk"
   xml:space="preserve"><tspan
     style="font-size:28px;font-style:normal;font-variant:normal;font-weight:normal;font-stretch:normal;font-family:Candara;-inkscape-font-specification:Candara"
     y="-166.23892"
     x="198.8067"
     id="tspan3690"
     sodipodi:role="line">blerg@blerg.com</tspan></text>


<text
   xml:space="preserve"
   style="font-size:40px;font-style:normal;font-variant:normal;font-weight:normal;font-stretch:normal;fill:#000000;fill-opacity:1;stroke:none;font-family:LT Chickenhawk;-inkscape-font-specification:LT Chickenhawk"
   x="197.5899"
   y="-110.1228"
   id="text3692"><tspan
     sodipodi:role="line"
     id="tspan3694"
     x="197.5899"
     y="-110.1228"
     style="font-size:28px;font-style:normal;font-variant:normal;font-weight:normal;font-stretch:normal;font-family:Candara;-inkscape-font-specification:Candara">***************</tspan></text>


<g
   id="g3702"
   transform="translate(-51.867665,47.877845)"><rect
   style="fill:none;stroke:#000000;stroke-width:2;stroke-linecap:round;stroke-linejoin:round;stroke-miterlimit:4;stroke-opacity:1;stroke-dasharray:none;stroke-dashoffset:0"
   id="rect3662"
   width="221.703"
   height="39.360458"
   x="125.87352"
   y="316.48865"
   rx="0.62958914"
   ry="0.49700084" /><rect
   ry="0.49704802"
   rx="0.62742865"
   y="316.48679"
   x="358.64832"
   height="39.364197"
   width="220.94221"
   id="rect3664"
   style="fill:none;stroke:#000000;stroke-width:2;stroke-linecap:round;stroke-linejoin:round;stroke-miterlimit:4;stroke-opacity:1;stroke-dasharray:none;stroke-dashoffset:0" /><text
   xml:space="preserve"
   style="font-size:40px;font-style:normal;font-variant:normal;font-weight:normal;font-stretch:normal;fill:#000000;fill-opacity:1;stroke:none;font-family:LT Chickenhawk;-inkscape-font-specification:LT Chickenhawk"
   x="134.88043"
   y="344.23181"
   id="text3674"><tspan
     sodipodi:role="line"
     id="tspan3676"
     x="134.88043"
     y="344.23181"
     style="font-size:28px;font-style:normal;font-variant:normal;font-weight:normal;font-stretch:normal;font-family:Candara;-inkscape-font-specification:Candara">blerg@blerg.com</tspan></text>


<text
   id="text3678"
   y="350.34796"
   x="363.177"
   style="font-size:40px;font-style:normal;font-variant:normal;font-weight:normal;font-stretch:normal;fill:#000000;fill-opacity:1;stroke:none;font-family:LT Chickenhawk;-inkscape-font-specification:LT Chickenhawk"
   xml:space="preserve"><tspan
     style="font-size:28px;font-style:normal;font-variant:normal;font-weight:normal;font-stretch:normal;font-family:Candara;-inkscape-font-specification:Candara"
     y="350.34796"
     x="363.177"
     id="tspan3680"
     sodipodi:role="line">***************</tspan></text>


<rect
   ry="0.50015122"
   rx="0.27973819"
   y="316.61127"
   x="590.29022"
   height="39.609959"
   width="98.506767"
   id="rect3696"
   style="fill:#e6e6e6;stroke:#000000;stroke-width:2;stroke-linecap:round;stroke-linejoin:round;stroke-miterlimit:4;stroke-opacity:1;stroke-dasharray:none;stroke-dashoffset:0" /><text
   id="text3698"
   y="344.23181"
   x="607.00916"
   style="font-size:40px;font-style:normal;font-variant:normal;font-weight:normal;font-stretch:normal;fill:#000000;fill-opacity:1;stroke:none;font-family:LT Chickenhawk;-inkscape-font-specification:LT Chickenhawk"
   xml:space="preserve"><tspan
     style="font-size:28px;font-style:normal;font-variant:normal;font-weight:normal;font-stretch:normal;font-family:Candara;-inkscape-font-specification:Candara"
     y="344.23181"
     x="607.00916"
     id="tspan3700"
     sodipodi:role="line">login</tspan></text>


</g><path
   d="m 269.54375,563.24556 c -0.115,-0.517 -0.683,-1.011 -1.643,-1.472 -0.362,-2.297 -9.197,-4.174 -20.603,-4.472 l 0,-31.613 1.086,0 0,-6.927 -1.633,0 0,-13.276 c 2.409,1.571 5.948,1.081 8.422,-1.339 l 7.395,-7.233 c 2.802,-2.738 3.171,-6.901 0.829,-9.296 l -2.614,-2.671 -7.666,7.497 -2.121,-2.17 7.667,-7.497 -2.106,-2.153 -7.682,7.512 -2.123,-2.167 7.684,-7.514 -2.12,-2.17 -7.684,7.514 -2.121,-2.17 7.681,-7.514 -2.12,-2.168 -7.682,7.513 -2.122,-2.17 7.684,-7.513 -2.598,-2.655 c -2.344,-2.396 -6.514,-2.119 -9.314,0.62 l -7.395,7.231 c -2.8,2.74 -3.17,6.902 -0.827,9.297 l 2.581,2.639 7.744,-7.573 2.121,2.168 -7.744,7.573 2.122,2.17 7.744,-7.573 2.122,2.168 -7.745,7.575 2.122,2.168 4.634,-4.532 0,4.243 -2.514,2.459 2.121,2.168 0.393,-0.384 0,19.223 -1.632,0 0,6.927 1.088,0 0,31.614 c -11.405,0.298 -20.24,2.173 -20.604,4.472 -0.96,0.46 -1.529,0.955 -1.644,1.472 -1.042,0.495 -1.639,1.027 -1.639,1.585 0.001,2.575 12.11,4.66 27.048,4.66 14.937,0 27.047,-2.086 27.047,-4.661 0,-0.557 -0.596,-1.089 -1.639,-1.585 z m -22.792,-68.822 2.12,-2.072 2.12,2.168 -4.24,4.147 0,-4.243 z m -2.123,-6.411 0.032,0.033 -0.065,0 0.033,-0.033 z"
   id="path3715"
   sodipodi:nodetypes="ccccccccccccccccccccccccccccccccccccccccccccccccccccssscccccccccc" /><text
   xml:space="preserve"
   style="font-size:39.22624969px;font-style:normal;font-variant:normal;font-weight:normal;font-stretch:normal;fill:#000000;fill-opacity:1;stroke:none;font-family:LT Chickenhawk;-inkscape-font-specification:LT Chickenhawk"
   x="286.02048"
   y="524.51245"
   id="text3717"
   transform="scale(0.98065627,1.0197253)"><tspan
     sodipodi:role="line"
     id="tspan3719"
     x="286.02048"
     y="524.51245"
     style="font-size:47.07150269px;font-style:normal;font-variant:normal;font-weight:bold;font-stretch:normal;font-family:Market Deco;-inkscape-font-specification:Market Deco Bold">JokE Time</tspan></text>


<rect
   style="fill:none;stroke:#000000;stroke-width:2;stroke-linecap:round;stroke-linejoin:round;stroke-miterlimit:4;stroke-opacity:1;stroke-dasharray:none;stroke-dashoffset:0"
   id="rect3723"
   width="221.703"
   height="39.360458"
   x="511.55615"
   y="482.73114"
   rx="0.62958914"
   ry="0.49700084" /><rect
   ry="0.49704802"
   rx="0.62742865"
   y="535.92694"
   x="510.26147"
   height="39.364197"
   width="220.94221"
   id="rect3725"
   style="fill:none;stroke:#000000;stroke-width:2;stroke-linecap:round;stroke-linejoin:round;stroke-miterlimit:4;stroke-opacity:1;stroke-dasharray:none;stroke-dashoffset:0" /><text
   xml:space="preserve"
   style="font-size:40px;font-style:normal;font-variant:normal;font-weight:normal;font-stretch:normal;fill:#000000;fill-opacity:1;stroke:none;font-family:LT Chickenhawk;-inkscape-font-specification:LT Chickenhawk"
   x="520.56305"
   y="510.4743"
   id="text3727"><tspan
     sodipodi:role="line"
     id="tspan3729"
     x="520.56305"
     y="510.4743"
     style="font-size:28px;font-style:normal;font-variant:normal;font-weight:normal;font-stretch:normal;font-family:Candara;-inkscape-font-specification:Candara">blerg@blerg.com</tspan></text>


<text
   id="text3731"
   y="569.78809"
   x="514.79016"
   style="font-size:40px;font-style:normal;font-variant:normal;font-weight:normal;font-stretch:normal;fill:#000000;fill-opacity:1;stroke:none;font-family:LT Chickenhawk;-inkscape-font-specification:LT Chickenhawk"
   xml:space="preserve"><tspan
     style="font-size:28px;font-style:normal;font-variant:normal;font-weight:normal;font-stretch:normal;font-family:Candara;-inkscape-font-specification:Candara"
     y="569.78809"
     x="514.79016"
     id="tspan3733"
     sodipodi:role="line">***************</tspan></text>


<rect
   ry="0.50015122"
   rx="0.27973819"
   y="536.05139"
   x="741.90344"
   height="39.609959"
   width="98.506767"
   id="rect3735"
   style="fill:#e6e6e6;stroke:#000000;stroke-width:2;stroke-linecap:round;stroke-linejoin:round;stroke-miterlimit:4;stroke-opacity:1;stroke-dasharray:none;stroke-dashoffset:0" /><text
   id="text3737"
   y="563.67194"
   x="758.62238"
   style="font-size:40px;font-style:normal;font-variant:normal;font-weight:normal;font-stretch:normal;fill:#000000;fill-opacity:1;stroke:none;font-family:LT Chickenhawk;-inkscape-font-specification:LT Chickenhawk"
   xml:space="preserve"><tspan
     style="font-size:28px;font-style:normal;font-variant:normal;font-weight:normal;font-stretch:normal;font-family:Candara;-inkscape-font-specification:Candara"
     y="563.67194"
     x="758.62238"
     id="tspan3739"
     sodipodi:role="line">login</tspan></text>


<path
   d="m -120.98805,559.88328 c -0.115,-0.517 -0.683,-1.011 -1.643,-1.472 -0.362,-2.297 -9.197,-4.174 -20.603,-4.472 l 0,-99.613 1.086,0 0,-6.927 -1.633,0 0,-57.276 c 2.409,1.571 5.948,1.081 8.422,-1.339 l 7.395,-7.233 c 2.802,-2.738 3.171,-6.901 0.829,-9.296 l -2.614,-2.671 -7.666,7.497 -2.121,-2.17 7.667,-7.497 -2.106,-2.153 -7.682,7.512 -2.123,-2.167 7.684,-7.514 -2.12,-2.17 -7.684,7.514 -2.121,-2.17 7.681,-7.514 -2.12,-2.168 -7.682,7.513 -2.122,-2.17 7.684,-7.513 -2.598,-2.655 c -2.344,-2.396 -6.514,-2.119 -9.314,0.62 l -7.395,7.231 c -2.8,2.74 -3.17,6.902 -0.827,9.297 l 2.581,2.639 7.744,-7.573 2.121,2.168 -7.744,7.573 2.122,2.17 7.744,-7.573 2.122,2.168 -7.745,7.575 2.122,2.168 4.634,-4.532 0,4.243 -2.514,2.459 2.121,2.168 0.393,-0.384 0,63.223 -1.632,0 0,6.927 1.088,0 0,99.614 c -11.405,0.298 -20.24,2.173 -20.604,4.472 -0.96,0.46 -1.529,0.955 -1.644,1.472 -1.042,0.495 -1.639,1.027 -1.639,1.585 0.001,2.575 12.11,4.66 27.048,4.66 14.937,0 27.047,-2.086 27.047,-4.661 0,-0.557 -0.596,-1.089 -1.639,-1.585 z m -22.792,-180.822 2.12,-2.072 2.12,2.168 -4.24,4.147 0,-4.243 z m -2.123,-6.411 0.032,0.033 -0.065,0 0.033,-0.033 z"
   id="path3750"
   sodipodi:nodetypes="ccccccccccccccccccccccccccccccccccccccccccccccccccccssscccccccccc"
   inkscape:export-filename="/Users/neal/Desktop/comedy/header_logo_2.png"
   inkscape:export-xdpi="163.87"
   inkscape:export-ydpi="163.87" /><text
   xml:space="preserve"
   style="font-size:40px;font-style:normal;font-variant:normal;font-weight:normal;font-stretch:normal;fill:#000000;fill-opacity:1;stroke:none;font-family:LT Chickenhawk;-inkscape-font-specification:LT Chickenhawk"
   x="-268.09686"
   y="483.5864"
   id="text3752"
   inkscape:export-filename="/Users/neal/Desktop/comedy/header_logo_2.png"
   inkscape:export-xdpi="163.87"
   inkscape:export-ydpi="163.87"><tspan
     sodipodi:role="line"
     id="tspan3754"
     x="-268.09686"
     y="483.5864"
     style="font-size:48px;font-style:normal;font-variant:normal;font-weight:bold;font-stretch:normal;font-family:Market Deco;-inkscape-font-specification:Market Deco Bold">Joke</tspan></text>


<text
   xml:space="preserve"
   style="font-size:42px;font-style:normal;font-variant:normal;font-weight:normal;font-stretch:normal;fill:#000000;fill-opacity:1;stroke:none;font-family:LT Chickenhawk;-inkscape-font-specification:LT Chickenhawk"
   x="-123.09685"
   y="483.2114"
   id="text3756"><tspan
     sodipodi:role="line"
     id="tspan3758"
     x="-123.09685"
     y="483.2114"
     style="font-size:48px;font-style:normal;font-variant:normal;font-weight:normal;font-stretch:normal;font-family:Market Deco;-inkscape-font-specification:Market Deco" /></text>


<text
   id="text3760"
   y="483.65671"
   x="-135.08685"
   style="font-size:42px;font-style:normal;font-variant:normal;font-weight:normal;font-stretch:normal;fill:#000000;fill-opacity:1;stroke:none;font-family:LT Chickenhawk;-inkscape-font-specification:LT Chickenhawk"
   xml:space="preserve"
   inkscape:export-filename="/Users/neal/Desktop/comedy/header_logo_2.png"
   inkscape:export-xdpi="163.87"
   inkscape:export-ydpi="163.87"><tspan
     style="font-size:48px;font-style:normal;font-variant:normal;font-weight:normal;font-stretch:normal;font-family:Market Deco;-inkscape-font-specification:Market Deco"
     y="483.65671"
     x="-135.08685"
     id="tspan3762"
     sodipodi:role="line">Time</tspan></text>


<g
   transform="translate(-539.95569,269.97785)"
   id="g3764"><rect
   ry="0.49700084"
   rx="0.62958914"
   y="316.48865"
   x="125.87352"
   height="39.360458"
   width="221.703"
   id="rect3766"
   style="fill:none;stroke:#000000;stroke-width:2;stroke-linecap:round;stroke-linejoin:round;stroke-miterlimit:4;stroke-opacity:1;stroke-dasharray:none;stroke-dashoffset:0" /><rect
   style="fill:none;stroke:#000000;stroke-width:2;stroke-linecap:round;stroke-linejoin:round;stroke-miterlimit:4;stroke-opacity:1;stroke-dasharray:none;stroke-dashoffset:0"
   id="rect3768"
   width="220.94221"
   height="39.364197"
   x="358.64832"
   y="316.48679"
   rx="0.62742865"
   ry="0.49704802" /><text
   id="text3770"
   y="344.23181"
   x="134.88043"
   style="font-size:40px;font-style:normal;font-variant:normal;font-weight:normal;font-stretch:normal;fill:#000000;fill-opacity:1;stroke:none;font-family:LT Chickenhawk;-inkscape-font-specification:LT Chickenhawk"
   xml:space="preserve"><tspan
     style="font-size:28px;font-style:normal;font-variant:normal;font-weight:normal;font-stretch:normal;font-family:Candara;-inkscape-font-specification:Candara"
     y="344.23181"
     x="134.88043"
     id="tspan3772"
     sodipodi:role="line">blerg@blerg.com</tspan></text>


<text
   xml:space="preserve"
   style="font-size:40px;font-style:normal;font-variant:normal;font-weight:normal;font-stretch:normal;fill:#000000;fill-opacity:1;stroke:none;font-family:LT Chickenhawk;-inkscape-font-specification:LT Chickenhawk"
   x="363.177"
   y="350.34796"
   id="text3774"><tspan
     sodipodi:role="line"
     id="tspan3776"
     x="363.177"
     y="350.34796"
     style="font-size:28px;font-style:normal;font-variant:normal;font-weight:normal;font-stretch:normal;font-family:Candara;-inkscape-font-specification:Candara">***************</tspan></text>


<rect
   style="fill:#e6e6e6;stroke:#000000;stroke-width:2;stroke-linecap:round;stroke-linejoin:round;stroke-miterlimit:4;stroke-opacity:1;stroke-dasharray:none;stroke-dashoffset:0"
   id="rect3778"
   width="98.506767"
   height="39.609959"
   x="590.29022"
   y="316.61127"
   rx="0.27973819"
   ry="0.50015122" /><text
   xml:space="preserve"
   style="font-size:40px;font-style:normal;font-variant:normal;font-weight:normal;font-stretch:normal;fill:#000000;fill-opacity:1;stroke:none;font-family:LT Chickenhawk;-inkscape-font-specification:LT Chickenhawk"
   x="607.00916"
   y="344.23181"
   id="text3780"><tspan
     sodipodi:role="line"
     id="tspan3782"
     x="607.00916"
     y="344.23181"
     style="font-size:28px;font-style:normal;font-variant:normal;font-weight:normal;font-stretch:normal;font-family:Candara;-inkscape-font-specification:Candara">login</tspan></text>


</g><g
   id="g3820"
   inkscape:export-filename="/Users/neal/Desktop/index_logo.png"
   inkscape:export-xdpi="115.9612"
   inkscape:export-ydpi="115.9612"><path
   d="m -102.88981,812.85904 c -0.115,-0.517 -0.683,-1.011 -1.643,-1.472 -0.362,-2.297 -9.197,-4.174 -20.603,-4.472 l 0,-31.613 1.086,0 0,-6.927 -1.633,0 0,-13.276 c 2.409,1.571 5.948,1.081 8.422,-1.339 l 7.395,-7.233 c 2.802,-2.738 3.171,-6.901 0.829,-9.296 l -2.614,-2.671 -7.666,7.497 -2.121,-2.17 7.667,-7.497 -2.106,-2.153 -7.682,7.512 -2.123,-2.167 7.684,-7.514 -2.12,-2.17 -7.684,7.514 -2.121,-2.17 7.681,-7.514 -2.12,-2.168 -7.682,7.513 -2.122,-2.17 7.684,-7.513 -2.598,-2.655 c -2.344,-2.396 -6.514,-2.119 -9.314,0.62 l -7.395,7.231 c -2.8,2.74 -3.17,6.902 -0.827,9.297 l 2.581,2.639 7.744,-7.573 2.121,2.168 -7.744,7.573 2.122,2.17 7.744,-7.573 2.122,2.168 -7.745,7.575 2.122,2.168 4.634,-4.532 0,4.243 -2.514,2.459 2.121,2.168 0.393,-0.384 0,19.223 -1.632,0 0,6.927 1.088,0 0,31.614 c -11.405,0.298 -20.24,2.173 -20.604,4.472 -0.96,0.46 -1.529,0.955 -1.644,1.472 -1.042,0.495 -1.639,1.027 -1.639,1.585 0.001,2.575 12.11,4.66 27.048,4.66 14.937,0 27.047,-2.086 27.047,-4.661 0,-0.557 -0.596,-1.089 -1.639,-1.585 z m -22.792,-68.822 2.12,-2.072 2.12,2.168 -4.24,4.147 0,-4.243 z m -2.123,-6.411 0.032,0.033 -0.065,0 0.033,-0.033 z"
   id="path3814"
   sodipodi:nodetypes="ccccccccccccccccccccccccccccccccccccccccccccccccccccssscccccccccc" /><text
   xml:space="preserve"
   style="font-size:60px;font-style:normal;font-variant:normal;font-weight:normal;font-stretch:normal;fill:#000000;fill-opacity:1;stroke:none;font-family:LT Chickenhawk;-inkscape-font-specification:LT Chickenhawk"
   x="-298.79745"
   y="796.89996"
   id="text3786"><tspan
     sodipodi:role="line"
     id="tspan3788"
     x="-298.79745"
     y="796.89996"
     style="font-size:60px;font-style:normal;font-variant:normal;font-weight:bold;font-stretch:normal;font-family:Market Deco;-inkscape-font-specification:Market Deco Bold">Joke</tspan></text>


<text
   id="text3790"
   y="797.10504"
   x="-95.787445"
   style="font-size:60px;font-style:normal;font-variant:normal;font-weight:normal;font-stretch:normal;fill:#000000;fill-opacity:1;stroke:none;font-family:LT Chickenhawk;-inkscape-font-specification:LT Chickenhawk"
   xml:space="preserve"><tspan
     style="font-size:60px;font-style:normal;font-variant:normal;font-weight:normal;font-stretch:normal;font-family:Market Deco;-inkscape-font-specification:Market Deco"
     y="797.10504"
     x="-95.787445"
     id="tspan3792"
     sodipodi:role="line">Time</tspan></text>


</g><g
   id="g3846"><rect
   style="fill:none;stroke:#000000;stroke-width:2;stroke-linecap:round;stroke-linejoin:round;stroke-miterlimit:4;stroke-opacity:1;stroke-dasharray:none;stroke-dashoffset:0"
   id="rect3796"
   width="221.703"
   height="39.360458"
   x="-421.06863"
   y="851.03296"
   rx="0.62958914"
   ry="0.49700084" /><rect
   ry="0.49704802"
   rx="0.62742865"
   y="851.03113"
   x="-188.29384"
   height="39.364197"
   width="220.94221"
   id="rect3798"
   style="fill:none;stroke:#000000;stroke-width:2;stroke-linecap:round;stroke-linejoin:round;stroke-miterlimit:4;stroke-opacity:1;stroke-dasharray:none;stroke-dashoffset:0" /><text
   xml:space="preserve"
   style="font-size:40px;font-style:normal;font-variant:normal;font-weight:normal;font-stretch:normal;fill:#000000;fill-opacity:1;stroke:none;font-family:LT Chickenhawk;-inkscape-font-specification:LT Chickenhawk"
   x="-412.06174"
   y="878.77612"
   id="text3800"><tspan
     sodipodi:role="line"
     id="tspan3802"
     x="-412.06174"
     y="878.77612"
     style="font-size:28px;font-style:normal;font-variant:normal;font-weight:normal;font-stretch:normal;font-family:Candara;-inkscape-font-specification:Candara">blerg@blerg.com</tspan></text>


<text
   id="text3804"
   y="884.89227"
   x="-183.76515"
   style="font-size:40px;font-style:normal;font-variant:normal;font-weight:normal;font-stretch:normal;fill:#000000;fill-opacity:1;stroke:none;font-family:LT Chickenhawk;-inkscape-font-specification:LT Chickenhawk"
   xml:space="preserve"><tspan
     style="font-size:28px;font-style:normal;font-variant:normal;font-weight:normal;font-stretch:normal;font-family:Candara;-inkscape-font-specification:Candara"
     y="884.89227"
     x="-183.76515"
     id="tspan3806"
     sodipodi:role="line">***************</tspan></text>


<rect
   ry="0.50015122"
   rx="0.27973819"
   y="851.15558"
   x="43.348061"
   height="39.609959"
   width="98.506767"
   id="rect3808"
   style="fill:#e6e6e6;stroke:#000000;stroke-width:2;stroke-linecap:round;stroke-linejoin:round;stroke-miterlimit:4;stroke-opacity:1;stroke-dasharray:none;stroke-dashoffset:0" /><text
   id="text3810"
   y="878.77612"
   x="60.066994"
   style="font-size:40px;font-style:normal;font-variant:normal;font-weight:normal;font-stretch:normal;fill:#000000;fill-opacity:1;stroke:none;font-family:LT Chickenhawk;-inkscape-font-specification:LT Chickenhawk"
   xml:space="preserve"><tspan
     style="font-size:28px;font-style:normal;font-variant:normal;font-weight:normal;font-stretch:normal;font-family:Candara;-inkscape-font-specification:Candara"
     y="878.77612"
     x="60.066994"
     id="tspan3812"
     sodipodi:role="line">login</tspan></text>


</g><text
   xml:space="preserve"
   style="font-size:40px;font-style:normal;font-variant:normal;font-weight:normal;font-stretch:normal;fill:#000000;fill-opacity:1;stroke:none;font-family:LT Chickenhawk;-inkscape-font-specification:LT Chickenhawk"
   x="-48.988091"
   y="922.66418"
   id="text3831"><tspan
     sodipodi:role="line"
     id="tspan3833"
     x="-48.988091"
     y="922.66418"
     style="font-size:20px;font-style:normal;font-variant:normal;font-weight:normal;font-stretch:normal;font-family:Candara;-inkscape-font-specification:Candara">forgot your password?</tspan></text>


<path
   sodipodi:nodetypes="cccccccccccccccccccccccccccccccccccccccccccccccccccccccc"
   id="path3827"
   d="m 368.3223,774.38736 1.086,0 0,-6.927 -1.633,0 0,-13.276 c 2.409,1.571 5.948,1.081 8.422,-1.339 l 7.395,-7.233 c 2.802,-2.738 3.171,-6.901 0.829,-9.296 l -2.614,-2.671 -7.666,7.497 -2.121,-2.17 7.667,-7.497 -2.106,-2.153 -7.682,7.512 -2.123,-2.167 7.684,-7.514 -2.12,-2.17 -7.684,7.514 -2.121,-2.17 7.681,-7.514 -2.12,-2.168 -7.682,7.513 -2.122,-2.17 7.684,-7.513 -2.598,-2.655 c -2.344,-2.396 -6.514,-2.119 -9.314,0.62 l -7.395,7.231 c -2.8,2.74 -3.17,6.902 -0.827,9.297 l 2.581,2.639 7.744,-7.573 2.121,2.168 -7.744,7.573 2.122,2.17 7.744,-7.573 2.122,2.168 -7.745,7.575 2.122,2.168 4.634,-4.532 0,4.243 -2.514,2.459 2.121,2.168 0.393,-0.384 0,19.223 -1.632,0 0,6.927 1.088,0 6.323,0 z m -0.546,-31.265 2.12,-2.072 2.12,2.168 -4.24,4.147 0,-4.243 z m -2.123,-6.411 0.032,0.033 -0.065,0 0.033,-0.033 z" /><text
   transform="scale(0.98065627,1.0197253)"
   id="text2906"
   y="744.92474"
   x="623.70764"
   style="font-size:39.22624969px;font-style:normal;font-variant:normal;font-weight:normal;font-stretch:normal;fill:#000000;fill-opacity:1;stroke:none;font-family:LT Chickenhawk;-inkscape-font-specification:LT Chickenhawk"
   xml:space="preserve"><tspan
     style="font-size:47.07150269px;font-style:normal;font-variant:normal;font-weight:bold;font-stretch:normal;font-family:Market Deco;-inkscape-font-specification:Market Deco Bold"
     y="744.92474"
     x="623.70764"
     id="tspan2908"
     sodipodi:role="line">JokE Time</tspan></text>

<path
   sodipodi:type="arc"
   style="fill:#ffff00;stroke:none"
   id="path2910"
   sodipodi:cx="710.18805"
   sodipodi:cy="733.05151"
   sodipodi:rx="58.517365"
   sodipodi:ry="43.888023"
   d="m 768.70541,733.05151 a 58.517365,43.888023 0 1 1 -117.03473,0 58.517365,43.888023 0 1 1 117.03473,0 z"
   transform="matrix(0.59811306,0,0,0.79748408,624.80228,33.956059)"
   inkscape:export-filename="/Users/neal/Desktop/comedy/favico.png"
   inkscape:export-xdpi="129.85715"
   inkscape:export-ydpi="129.85715" /><path
   d="m 1052.2658,648.65162 1.086,0 0,-6.927 -1.633,0 0,-13.276 c 2.409,1.571 5.948,1.081 8.422,-1.339 l 7.395,-7.233 c 2.802,-2.738 3.171,-6.901 0.829,-9.296 l -2.614,-2.671 -7.666,7.497 -2.121,-2.17 7.667,-7.497 -2.106,-2.153 -7.682,7.512 -2.123,-2.167 7.684,-7.514 -2.12,-2.17 -7.684,7.514 -2.121,-2.17 7.681,-7.514 -2.12,-2.168 -7.682,7.513 -2.122,-2.17 7.684,-7.513 -2.598,-2.655 c -2.344,-2.396 -6.514,-2.119 -9.314,0.62 l -7.395,7.231 c -2.8,2.74 -3.17,6.902 -0.827,9.297 l 2.581,2.639 7.744,-7.573 2.121,2.168 -7.744,7.573 2.122,2.17 7.744,-7.573 2.122,2.168 -7.745,7.575 2.122,2.168 4.634,-4.532 0,4.243 -2.514,2.459 2.121,2.168 0.393,-0.384 0,19.223 -1.632,0 0,6.927 1.088,0 6.323,0 z m -0.546,-31.265 2.12,-2.072 2.12,2.168 -4.24,4.147 0,-4.243 z m -2.123,-6.411 0.032,0.033 -0.065,0 0.033,-0.033 z"
   id="path2912"
   sodipodi:nodetypes="cccccccccccccccccccccccccccccccccccccccccccccccccccccccc"
   inkscape:export-filename="/Users/neal/Desktop/comedy/favico.png"
   inkscape:export-xdpi="129.85715"
   inkscape:export-ydpi="129.85715" /><text
   inkscape:export-ydpi="129.85715"
   inkscape:export-xdpi="129.85715"
   inkscape:export-filename="/Users/neal/Desktop/comedy/header_logo_3.png"
   id="text2914"
   y="635.83813"
   x="898.87469"
   style="font-size:40px;font-style:normal;font-variant:normal;font-weight:normal;font-stretch:normal;fill:#000000;fill-opacity:1;stroke:none;font-family:LT Chickenhawk;-inkscape-font-specification:LT Chickenhawk"
   xml:space="preserve"><tspan
     style="font-size:48px;font-style:normal;font-variant:normal;font-weight:bold;font-stretch:normal;font-family:Market Deco;-inkscape-font-specification:Market Deco Bold"
     y="635.83813"
     x="898.87469"
     id="tspan2916"
     sodipodi:role="line">Joke</tspan></text>

<text
   inkscape:export-ydpi="129.85715"
   inkscape:export-xdpi="129.85715"
   inkscape:export-filename="/Users/neal/Desktop/comedy/header_logo_3.png"
   xml:space="preserve"
   style="font-size:42px;font-style:normal;font-variant:normal;font-weight:normal;font-stretch:normal;fill:#000000;fill-opacity:1;stroke:none;font-family:LT Chickenhawk;-inkscape-font-specification:LT Chickenhawk"
   x="1089.8848"
   y="636.59985"
   id="text2918"><tspan
     sodipodi:role="line"
     id="tspan2920"
     x="1089.8848"
     y="636.59985"
     style="font-size:48px;font-style:normal;font-variant:normal;font-weight:normal;font-stretch:normal;font-family:Market Deco;-inkscape-font-specification:Market Deco">Time</tspan></text>

<path
   inkscape:export-ydpi="129.85715"
   inkscape:export-xdpi="129.85715"
   inkscape:export-filename="/Users/neal/Desktop/comedy/favico.png"
   transform="matrix(0.59811306,0,0,0.79748408,627.80228,129.95606)"
   d="m 768.70541,733.05151 a 58.517365,43.888023 0 1 1 -117.03473,0 58.517365,43.888023 0 1 1 117.03473,0 z"
   sodipodi:ry="43.888023"
   sodipodi:rx="58.517365"
   sodipodi:cy="733.05151"
   sodipodi:cx="710.18805"
   id="path2914"
   style="fill:#ffff00;stroke:none"
   sodipodi:type="arc" /><path
   inkscape:export-ydpi="129.85715"
   inkscape:export-xdpi="129.85715"
   inkscape:export-filename="/Users/neal/Desktop/comedy/favico.png"
   sodipodi:nodetypes="cccccccccccccccccccccccccccccccccccccccccccccccccccccccc"
   id="path2916"
   d="m 1055.2658,760.65162 1.086,0 0,-6.927 -1.633,0 0,-29.276 c 2.409,1.571 5.948,1.081 8.422,-1.339 l 7.395,-7.233 c 2.802,-2.738 3.171,-6.901 0.829,-9.296 l -2.614,-2.671 -7.666,7.497 -2.121,-2.17 7.667,-7.497 -2.106,-2.153 -7.682,7.512 -2.123,-2.167 7.684,-7.514 -2.12,-2.17 -7.684,7.514 -2.121,-2.17 7.681,-7.514 -2.12,-2.168 -7.682,7.513 -2.122,-2.17 7.684,-7.513 -2.598,-2.655 c -2.344,-2.396 -6.514,-2.119 -9.314,0.62 l -7.395,7.231 c -2.8,2.74 -3.17,6.902 -0.827,9.297 l 2.581,2.639 7.744,-7.573 2.121,2.168 -7.744,7.573 2.122,2.17 7.744,-7.573 2.122,2.168 -7.745,7.575 2.122,2.168 4.634,-4.532 0,4.243 -2.514,2.459 2.121,2.168 0.393,-0.384 0,35.223 -1.632,0 0,6.927 1.088,0 6.323,0 z m -0.546,-47.265 2.12,-2.072 2.12,2.168 -4.24,4.147 0,-4.243 z m -2.123,-6.411 0.032,0.033 -0.065,0 0.033,-0.033 z" /><text
   xml:space="preserve"
   style="font-size:40px;font-style:normal;font-variant:normal;font-weight:normal;font-stretch:normal;fill:#000000;fill-opacity:1;stroke:none;font-family:LT Chickenhawk;-inkscape-font-specification:LT Chickenhawk"
   x="901.87469"
   y="731.83813"
   id="text2919"
   inkscape:export-filename="/Users/neal/Desktop/comedy/header_logo_3.png"
   inkscape:export-xdpi="129.85715"
   inkscape:export-ydpi="129.85715"><tspan
     sodipodi:role="line"
     id="tspan2921"
     x="901.87469"
     y="731.83813"
     style="font-size:48px;font-style:normal;font-variant:normal;font-weight:bold;font-stretch:normal;font-family:Market Deco;-inkscape-font-specification:Market Deco Bold">Joke</tspan></text>
<text
   id="text2923"
   y="732.59985"
   x="1092.8848"
   style="font-size:42px;font-style:normal;font-variant:normal;font-weight:normal;font-stretch:normal;fill:#000000;fill-opacity:1;stroke:none;font-family:LT Chickenhawk;-inkscape-font-specification:LT Chickenhawk"
   xml:space="preserve"
   inkscape:export-filename="/Users/neal/Desktop/comedy/header_logo_3.png"
   inkscape:export-xdpi="129.85715"
   inkscape:export-ydpi="129.85715"><tspan
     style="font-size:48px;font-style:normal;font-variant:normal;font-weight:normal;font-stretch:normal;font-family:Market Deco;-inkscape-font-specification:Market Deco"
     y="732.59985"
     x="1092.8848"
     id="tspan2925"
     sodipodi:role="line">Time</tspan></text>
<path
   sodipodi:type="arc"
   style="fill:#ffff00;stroke:none"
   id="path2927"
   sodipodi:cx="710.18805"
   sodipodi:cy="733.05151"
   sodipodi:rx="58.517365"
   sodipodi:ry="43.888023"
   d="m 768.70541,733.05151 a 58.517365,43.888023 0 1 1 -117.03473,0 58.517365,43.888023 0 1 1 117.03473,0 z"
   transform="matrix(0.59811306,0,0,0.79748408,627.30228,239.45606)"
   inkscape:export-filename="/Users/neal/Desktop/comedy/favico.png"
   inkscape:export-xdpi="129.85715"
   inkscape:export-ydpi="129.85715" /><path
   d="m 1054.2188,863.22462 0,-29.276 c 2.409,1.571 5.948,1.081 8.422,-1.339 l 7.395,-7.233 c 2.802,-2.738 3.171,-6.901 0.829,-9.296 l -2.614,-2.671 -7.666,7.497 -2.121,-2.17 7.667,-7.497 -2.106,-2.153 -7.682,7.512 -2.123,-2.167 7.684,-7.514 -2.12,-2.17 -7.684,7.514 -2.121,-2.17 7.681,-7.514 -2.12,-2.168 -7.682,7.513 -2.122,-2.17 7.684,-7.513 -2.598,-2.655 c -2.344,-2.396 -6.514,-2.119 -9.314,0.62 l -7.395,7.231 c -2.8,2.74 -3.17,6.902 -0.827,9.297 l 2.581,2.639 7.744,-7.573 2.121,2.168 -7.744,7.573 2.122,2.17 7.744,-7.573 2.122,2.168 -7.745,7.575 2.122,2.168 4.634,-4.532 0,4.243 -2.514,2.459 2.121,2.168 0.393,-0.384 0,35.223 5.232,0 z m 10e-4,-40.338 2.12,-2.072 2.12,2.168 -4.24,4.147 0,-4.243 z m -2.123,-6.411 0.032,0.033 -0.065,0 0.033,-0.033 z"
   id="path2929"
   sodipodi:nodetypes="cccccccccccccccccccccccccccccccccccccccccccccccccc"
   inkscape:export-filename="/Users/neal/Desktop/comedy/favico.png"
   inkscape:export-xdpi="129.85715"
   inkscape:export-ydpi="129.85715" /><text
   inkscape:export-ydpi="129.85715"
   inkscape:export-xdpi="129.85715"
   inkscape:export-filename="/Users/neal/Desktop/comedy/header_logo_3.png"
   id="text2931"
   y="841.33813"
   x="901.37469"
   style="font-size:40px;font-style:normal;font-variant:normal;font-weight:normal;font-stretch:normal;fill:#000000;fill-opacity:1;stroke:none;font-family:LT Chickenhawk;-inkscape-font-specification:LT Chickenhawk"
   xml:space="preserve"><tspan
     style="font-size:48px;font-style:normal;font-variant:normal;font-weight:bold;font-stretch:normal;font-family:Market Deco;-inkscape-font-specification:Market Deco Bold"
     y="841.33813"
     x="901.37469"
     id="tspan2933"
     sodipodi:role="line">Joke</tspan></text>
<text
   inkscape:export-ydpi="129.85715"
   inkscape:export-xdpi="129.85715"
   inkscape:export-filename="/Users/neal/Desktop/comedy/header_logo_3.png"
   xml:space="preserve"
   style="font-size:42px;font-style:normal;font-variant:normal;font-weight:normal;font-stretch:normal;fill:#000000;fill-opacity:1;stroke:none;font-family:LT Chickenhawk;-inkscape-font-specification:LT Chickenhawk"
   x="1092.3848"
   y="842.09985"
   id="text2935"><tspan
     sodipodi:role="line"
     id="tspan2937"
     x="1092.3848"
     y="842.09985"
     style="font-size:48px;font-style:normal;font-variant:normal;font-weight:normal;font-stretch:normal;font-family:Market Deco;-inkscape-font-specification:Market Deco">Time</tspan></text>
</svg>