<?xml version="1.0" encoding="UTF-8" standalone="no"?>
<svg
   xmlns:dc="http://purl.org/dc/elements/1.1/"
   xmlns:cc="http://creativecommons.org/ns#"
   xmlns:rdf="http://www.w3.org/1999/02/22-rdf-syntax-ns#"
   xmlns:svg="http://www.w3.org/2000/svg"
   xmlns="http://www.w3.org/2000/svg"
   xmlns:sodipodi="http://sodipodi.sourceforge.net/DTD/sodipodi-0.dtd"
   xmlns:inkscape="http://www.inkscape.org/namespaces/inkscape"
   version="1.1"
   id="Layer_1"
   x="0px"
   y="0px"
   width="100px"
   height="100px"
   viewBox="0 0 100 100"
   enable-background="new 0 0 100 100"
   xml:space="preserve"
   inkscape:version="0.47pre4 r22446"
   sodipodi:docname="noun_project_7340.svg"><metadata
   id="metadata9"><rdf:RDF><cc:Work
       rdf:about=""><dc:format>image/svg+xml</dc:format><dc:type
         rdf:resource="http://purl.org/dc/dcmitype/StillImage" /></cc:Work></rdf:RDF></metadata><defs
   id="defs7"><inkscape:perspective
     sodipodi:type="inkscape:persp3d"
     inkscape:vp_x="0 : 50 : 1"
     inkscape:vp_y="0 : 1000 : 0"
     inkscape:vp_z="100 : 50 : 1"
     inkscape:persp3d-origin="50 : 33.333333 : 1"
     id="perspective11" /></defs><sodipodi:namedview
   pagecolor="#ffffff"
   bordercolor="#666666"
   borderopacity="1"
   objecttolerance="10"
   gridtolerance="10"
   guidetolerance="10"
   inkscape:pageopacity="0"
   inkscape:pageshadow="2"
   inkscape:window-width="1160"
   inkscape:window-height="774"
   id="namedview5"
   showgrid="false"
   inkscape:zoom="1.4142136"
   inkscape:cx="164.44609"
   inkscape:cy="61.345709"
   inkscape:window-x="264"
   inkscape:window-y="0"
   inkscape:window-maximized="0"
   inkscape:current-layer="Layer_1" />
<path
   d="m -124.592,154.754 c -0.115,-0.517 -0.683,-1.011 -1.643,-1.472 -0.362,-2.297 -9.197,-4.174 -20.603,-4.472 l 0,-99.613 1.086,0 0,-6.927 -1.633,0 0,-57.276 c 2.409,1.571 5.948,1.081 8.422,-1.339 l 7.395,-7.233 c 2.802,-2.738 3.171,-6.901 0.829,-9.296 l -2.614,-2.671 -7.666,7.497 -2.121,-2.17 7.667,-7.497 -2.106,-2.153 -7.682,7.512 -2.123,-2.167 7.684,-7.514 -2.12,-2.17 -7.684,7.514 -2.121,-2.17 7.681,-7.514 -2.12,-2.168 -7.682,7.513 -2.122,-2.17 7.684,-7.513 -2.598,-2.655 c -2.344,-2.396 -6.514,-2.119 -9.314,0.62 l -7.395,7.231 c -2.8,2.74 -3.17,6.902 -0.827,9.297 l 2.581,2.639 7.744,-7.573 2.121,2.168 -7.744,7.573 2.122,2.17 7.744,-7.573 2.122,2.168 -7.745,7.575 2.122,2.168 4.634,-4.532 0,4.243 -2.514,2.459 2.121,2.168 0.393,-0.384 0,63.223 -1.632,0 0,6.927 1.088,0 0,99.614 c -11.405,0.298 -20.24,2.173 -20.604,4.472 -0.96,0.46 -1.529,0.955 -1.644,1.472 -1.042,0.495 -1.639,1.027 -1.639,1.585 0.001,2.575 12.11,4.66 27.048,4.66 14.937,0 27.047,-2.086 27.047,-4.661 0,-0.557 -0.596,-1.089 -1.639,-1.585 z m -22.792,-180.822 2.12,-2.072 2.12,2.168 -4.24,4.147 0,-4.243 z m -2.123,-6.411 0.032,0.033 -0.065,0 0.033,-0.033 z"
   id="path3"
   sodipodi:nodetypes="ccccccccccccccccccccccccccccccccccccccccccccccccccccssscccccccccc" />
<text
   xml:space="preserve"
   style="font-size:40px;font-style:normal;font-variant:normal;font-weight:normal;font-stretch:normal;fill:#000000;fill-opacity:1;stroke:none;font-family:LT Chickenhawk;-inkscape-font-specification:LT Chickenhawk"
   x="-296"
   y="60"
   id="text2817"><tspan
     sodipodi:role="line"
     id="tspan2819"
     x="-296"
     y="60"
     style="font-size:48px;font-style:normal;font-variant:normal;font-weight:bold;font-stretch:normal;font-family:Market Deco;-inkscape-font-specification:Market Deco Bold">Laugh    </tspan></text>
<text
   xml:space="preserve"
   style="font-size:42px;font-style:normal;font-variant:normal;font-weight:normal;font-stretch:normal;fill:#000000;fill-opacity:1;stroke:none;font-family:LT Chickenhawk;-inkscape-font-specification:LT Chickenhawk"
   x="-133"
   y="60.070312"
   id="text3605"><tspan
     sodipodi:role="line"
     id="tspan3607"
     x="-133"
     y="60.070312"
     style="font-size:48px;font-style:normal;font-variant:normal;font-weight:normal;font-stretch:normal;font-family:Market Deco;-inkscape-font-specification:Market Deco">@ me</tspan></text>
<path
   sodipodi:nodetypes="ccccccccccccccccccccccccccccccccccccccccccccccccccccssscccccccccc"
   id="path3619"
   d="m 256.65125,134.88268 c -0.115,-0.517 -0.683,-1.011 -1.643,-1.472 -0.362,-2.297 -9.197,-4.174 -20.603,-4.472 l 0,-99.613 1.086,0 0,-6.927 -1.633,0 0,-57.276 c 2.409,1.571 5.948,1.081 8.422,-1.339 l 7.395,-7.233 c 2.802,-2.738 3.171,-6.901 0.829,-9.296 l -2.614,-2.671 -7.666,7.497 -2.121,-2.17 7.667,-7.497 -2.106,-2.153 -7.682,7.512 -2.123,-2.167 7.684,-7.514 -2.12,-2.17 -7.684,7.514 -2.121,-2.17 7.681,-7.514 -2.12,-2.168 -7.682,7.513 -2.122,-2.17 7.684,-7.513 -2.598,-2.655 c -2.344,-2.396 -6.514,-2.119 -9.314,0.62 l -7.395,7.231 c -2.8,2.74 -3.17,6.902 -0.827,9.297 l 2.581,2.639 7.744,-7.573 2.121,2.168 -7.744,7.573 2.122,2.17 7.744,-7.573 2.122,2.168 -7.745,7.575 2.122,2.168 4.634,-4.532 0,4.243 -2.514,2.459 2.121,2.168 0.393,-0.384 0,63.223 -1.632,0 0,6.927 1.088,0 0,99.614 c -11.405,0.298 -20.24,2.173 -20.604,4.472 -0.96,0.46 -1.529,0.955 -1.644,1.472 -1.042,0.495 -1.639,1.027 -1.639,1.585 0.001,2.575 12.11,4.66 27.048,4.66 14.937,0 27.047,-2.086 27.047,-4.661 0,-0.557 -0.596,-1.089 -1.639,-1.585 z m -22.792,-180.822 2.12,-2.072 2.12,2.168 -4.24,4.147 0,-4.243 z m -2.123,-6.411 0.032,0.033 -0.065,0 0.033,-0.033 z" /><text
   id="text3621"
   y="58.585777"
   x="116.24326"
   style="font-size:40px;font-style:normal;font-variant:normal;font-weight:normal;font-stretch:normal;fill:#000000;fill-opacity:1;stroke:none;font-family:LT Chickenhawk;-inkscape-font-specification:LT Chickenhawk"
   xml:space="preserve"><tspan
     style="font-size:48px;font-style:normal;font-variant:normal;font-weight:bold;font-stretch:normal;font-family:Market Deco;-inkscape-font-specification:Market Deco Bold"
     y="58.585777"
     x="116.24326"
     id="tspan3623"
     sodipodi:role="line">Laugh    </tspan></text>
<text
   id="text3625"
   y="58.210777"
   x="255.24326"
   style="font-size:42px;font-style:normal;font-variant:normal;font-weight:normal;font-stretch:normal;fill:#000000;fill-opacity:1;stroke:none;font-family:LT Chickenhawk;-inkscape-font-specification:LT Chickenhawk"
   xml:space="preserve"><tspan
     style="font-size:48px;font-style:normal;font-variant:normal;font-weight:normal;font-stretch:normal;font-family:Market Deco;-inkscape-font-specification:Market Deco"
     y="58.210777"
     x="255.24326"
     id="tspan3627"
     sodipodi:role="line">@</tspan></text>
<text
   xml:space="preserve"
   style="font-size:42px;font-style:normal;font-variant:normal;font-weight:normal;font-stretch:normal;fill:#000000;fill-opacity:1;stroke:none;font-family:LT Chickenhawk;-inkscape-font-specification:LT Chickenhawk"
   x="295.79099"
   y="58.65609"
   id="text3629"><tspan
     sodipodi:role="line"
     id="tspan3631"
     x="295.79099"
     y="58.65609"
     style="font-size:48px;font-style:normal;font-variant:normal;font-weight:normal;font-stretch:normal;font-family:Market Deco;-inkscape-font-specification:Market Deco">me</tspan></text>
</svg>