<?xml version="1.0" encoding="UTF-8" standalone="no"?>
<!-- Created with Inkscape (http://www.inkscape.org/) -->

<svg
   xmlns:dc="http://purl.org/dc/elements/1.1/"
   xmlns:cc="http://creativecommons.org/ns#"
   xmlns:rdf="http://www.w3.org/1999/02/22-rdf-syntax-ns#"
   xmlns:svg="http://www.w3.org/2000/svg"
   xmlns="http://www.w3.org/2000/svg"
   xmlns:sodipodi="http://sodipodi.sourceforge.net/DTD/sodipodi-0.dtd"
   xmlns:inkscape="http://www.inkscape.org/namespaces/inkscape"
   width="744.09448819"
   height="1052.3622047"
   id="svg2928"
   version="1.1"
   inkscape:version="0.47pre4 r22446"
   sodipodi:docname="sprite_table.svg">
  <defs
     id="defs2930"><inkscape:perspective
   sodipodi:type="inkscape:persp3d"
   inkscape:vp_x="0 : 526.18109 : 1"
   inkscape:vp_y="0 : 1000 : 0"
   inkscape:vp_z="744.09448 : 526.18109 : 1"
   inkscape:persp3d-origin="372.04724 : 350.78739 : 1"
   id="perspective2936" />
<inkscape:perspective
   id="perspective3634"
   inkscape:persp3d-origin="50 : 33.333333 : 1"
   inkscape:vp_z="100 : 50 : 1"
   inkscape:vp_y="0 : 1000 : 0"
   inkscape:vp_x="0 : 50 : 1"
   sodipodi:type="inkscape:persp3d" />
<inkscape:perspective
   id="perspective3666"
   inkscape:persp3d-origin="0.5 : 0.33333333 : 1"
   inkscape:vp_z="1 : 0.5 : 1"
   inkscape:vp_y="0 : 1000 : 0"
   inkscape:vp_x="0 : 0.5 : 1"
   sodipodi:type="inkscape:persp3d" />
<inkscape:perspective
   id="perspective3802"
   inkscape:persp3d-origin="50 : 31.393298 : 1"
   inkscape:vp_z="100 : 47.089947 : 1"
   inkscape:vp_y="0 : 1000 : 0"
   inkscape:vp_x="0 : 47.089947 : 1"
   sodipodi:type="inkscape:persp3d" />
<inkscape:perspective
   id="perspective4239"
   inkscape:persp3d-origin="50 : 33.333333 : 1"
   inkscape:vp_z="100 : 50 : 1"
   inkscape:vp_y="0 : 1000 : 0"
   inkscape:vp_x="0 : 50 : 1"
   sodipodi:type="inkscape:persp3d" />

	
	
	
	
	
	
	
	
	
	
	
	
	
</defs>
  <sodipodi:namedview
     id="base"
     pagecolor="#ffffff"
     bordercolor="#666666"
     borderopacity="1.0"
     inkscape:pageopacity="0.0"
     inkscape:pageshadow="2"
     inkscape:zoom="1.9896194"
     inkscape:cx="278.31421"
     inkscape:cy="336.3005"
     inkscape:document-units="px"
     inkscape:current-layer="layer1"
     showgrid="false"
     inkscape:window-width="1440"
     inkscape:window-height="803"
     inkscape:window-x="0"
     inkscape:window-y="0"
     inkscape:window-maximized="0"
     showguides="true"
     inkscape:guide-bbox="true" />
  <metadata
     id="metadata2933">
    <rdf:RDF>
      <cc:Work
         rdf:about="">
        <dc:format>image/svg+xml</dc:format>
        <dc:type
           rdf:resource="http://purl.org/dc/dcmitype/StillImage" />
        <dc:title></dc:title>
      </cc:Work>
    </rdf:RDF>
  </metadata>
  <g
     inkscape:label="Layer 1"
     inkscape:groupmode="layer"
     id="layer1">
    <rect
       style="fill:#ffaaaa;fill-opacity:1;stroke:none"
       id="rect2938"
       width="150"
       height="90"
       x="125.71429"
       y="428.97214"
       rx="0.46024668"
       ry="0.21799265" />
    <rect
       ry="0.21799265"
       rx="0.46024668"
       y="428.97214"
       x="275.71399"
       height="90"
       width="150"
       id="rect2940"
       style="fill:#00ff00;fill-opacity:1;stroke:none" />
    <rect
       style="fill:#ffaaaa;fill-opacity:1;stroke:none"
       id="rect2942"
       width="150"
       height="90"
       x="425.71399"
       y="428.97214"
       rx="0.46024668"
       ry="0.21799265" />
    <g
       id="g3637"
       transform="matrix(1.2146934,0,0,1.2146934,290.10444,417.08198)"
       style="fill:#4d4d4d">
      <rect
         id="rect3618"
         height="42"
         width="12"
         y="39"
         x="27"
         style="fill:#4d4d4d" />
      <rect
         id="rect3620"
         height="30"
         width="12"
         y="51"
         x="45"
         style="fill:#4d4d4d" />
      <rect
         id="rect3622"
         height="19"
         width="13"
         y="62"
         x="8"
         style="fill:#4d4d4d" />
      <rect
         id="rect3624"
         height="38"
         width="13"
         y="43"
         x="81"
         style="fill:#4d4d4d" />
      <path
         id="path3626"
         d="M 99.902,25 99.896,12.744 87.486,12.67 87.489,17 c 0,0 2.443,0 4.862,0 L 76,34.185 V 13 H 63 V 42.114 L 29.802,16.773 -0.108,55.967 3.445,58.668 30.638,23.006 63,47.672 V 81 H 76 V 40.487 L 96,20.446 V 25 h 3.902 z"
         style="fill:#4d4d4d" />
    </g>
    <g
       id="g3768"
       transform="matrix(1.1035675,0,0,1.1035675,392.23911,371.38929)"
       style="fill:#4d4d4d">
	<circle
   id="circle3770"
   r="3.237"
   cy="69.917"
   cx="68.880997"
   sodipodi:cx="68.880997"
   sodipodi:cy="69.917"
   sodipodi:rx="3.237"
   sodipodi:ry="3.237"
   style="fill:none"
   d="m 72.117997,69.917 c 0,1.787746 -1.449255,3.237 -3.237,3.237 -1.787746,0 -3.237,-1.449254 -3.237,-3.237 0,-1.787746 1.449254,-3.237 3.237,-3.237 1.787745,0 3.237,1.449254 3.237,3.237 z" />

	<circle
   id="circle3772"
   r="3.237"
   cy="67.950996"
   cx="82.275002"
   sodipodi:cx="82.275002"
   sodipodi:cy="67.950996"
   sodipodi:rx="3.237"
   sodipodi:ry="3.237"
   style="fill:none"
   d="m 85.512002,67.950996 c 0,1.787746 -1.449255,3.237 -3.237,3.237 -1.787746,0 -3.237,-1.449254 -3.237,-3.237 0,-1.787745 1.449254,-3.237 3.237,-3.237 1.787745,0 3.237,1.449255 3.237,3.237 z" />

	<circle
   id="circle3774"
   r="3.237"
   cy="68.194"
   cx="114.024"
   sodipodi:cx="114.024"
   sodipodi:cy="68.194"
   sodipodi:rx="3.237"
   sodipodi:ry="3.237"
   style="fill:none"
   d="m 117.261,68.194 c 0,1.787746 -1.44925,3.237 -3.237,3.237 -1.78774,0 -3.237,-1.449254 -3.237,-3.237 0,-1.787745 1.44926,-3.237 3.237,-3.237 1.78775,0 3.237,1.449255 3.237,3.237 z" />

	<path
   id="path3776"
   d="m 118.817,87.34 c 6.249,0.658 11.713,-2.583 12.203,-7.237 l -22.635,-2.38 c -0.489,4.654 4.181,8.961 10.432,9.617 z"
   style="fill:none" />

	<circle
   id="circle3778"
   r="3.237"
   cy="69.610001"
   cx="127.488"
   sodipodi:cx="127.488"
   sodipodi:cy="69.610001"
   sodipodi:rx="3.237"
   sodipodi:ry="3.237"
   style="fill:none"
   d="m 130.725,69.610001 c 0,1.787745 -1.44926,3.237 -3.237,3.237 -1.78775,0 -3.237,-1.449255 -3.237,-3.237 0,-1.787746 1.44925,-3.237 3.237,-3.237 1.78774,0 3.237,1.449254 3.237,3.237 z" />

	<circle
   id="circle3780"
   r="3.237"
   cy="67.950996"
   cx="82.275002"
   sodipodi:cx="82.275002"
   sodipodi:cy="67.950996"
   sodipodi:rx="3.237"
   sodipodi:ry="3.237"
   style="fill:none"
   d="m 85.512002,67.950996 c 0,1.787746 -1.449255,3.237 -3.237,3.237 -1.787746,0 -3.237,-1.449254 -3.237,-3.237 0,-1.787745 1.449254,-3.237 3.237,-3.237 1.787745,0 3.237,1.449255 3.237,3.237 z" />

	<circle
   id="circle3782"
   r="3.237"
   cy="69.917"
   cx="68.880997"
   sodipodi:cx="68.880997"
   sodipodi:cy="69.917"
   sodipodi:rx="3.237"
   sodipodi:ry="3.237"
   style="fill:none"
   d="m 72.117997,69.917 c 0,1.787746 -1.449255,3.237 -3.237,3.237 -1.787746,0 -3.237,-1.449254 -3.237,-3.237 0,-1.787746 1.449254,-3.237 3.237,-3.237 1.787745,0 3.237,1.449254 3.237,3.237 z" />

	<path
   id="path3784"
   d="m 118.817,87.34 c 6.249,0.658 11.713,-2.583 12.203,-7.237 l -22.635,-2.38 c -0.489,4.654 4.181,8.961 10.432,9.617 z"
   style="fill:none" />

	<circle
   id="circle3786"
   r="3.237"
   cy="69.610001"
   cx="127.488"
   sodipodi:cx="127.488"
   sodipodi:cy="69.610001"
   sodipodi:rx="3.237"
   sodipodi:ry="3.237"
   style="fill:none"
   d="m 130.725,69.610001 c 0,1.787745 -1.44926,3.237 -3.237,3.237 -1.78775,0 -3.237,-1.449255 -3.237,-3.237 0,-1.787746 1.44925,-3.237 3.237,-3.237 1.78774,0 3.237,1.449254 3.237,3.237 z" />

	<circle
   id="circle3788"
   r="3.237"
   cy="68.194"
   cx="114.024"
   sodipodi:cx="114.024"
   sodipodi:cy="68.194"
   sodipodi:rx="3.237"
   sodipodi:ry="3.237"
   style="fill:none"
   d="m 117.261,68.194 c 0,1.787746 -1.44925,3.237 -3.237,3.237 -1.78774,0 -3.237,-1.449254 -3.237,-3.237 0,-1.787745 1.44926,-3.237 3.237,-3.237 1.78775,0 3.237,1.449255 3.237,3.237 z" />

	<path
   id="path3790"
   d="m 79.779,86.969 c -0.491,0.124 -0.991,0.233 -1.508,0.309 -6.218,0.913 -11.81,-2.101 -12.489,-6.731 l 22.517,-3.306 c 0.286,1.945 -0.351,3.863 -1.635,5.505 2.745,-1.152 5.722,-1.853 8.839,-2.018 C 96.284,78.07 96.527,75.21 96.099,72.29 94.509,61.462 84.442,53.974 73.615,55.563 62.788,57.153 55.299,67.219 56.889,78.047 c 1.295,8.821 8.217,15.422 16.592,16.708 1.594,-2.983 3.739,-5.621 6.298,-7.786 z m 2.025,-22.221 c 1.769,-0.26 3.413,0.964 3.673,2.732 0.26,1.768 -0.963,3.413 -2.732,3.673 -1.769,0.26 -3.414,-0.963 -3.673,-2.732 -0.26,-1.769 0.963,-3.413 2.732,-3.673 z m -13.393,1.967 c 1.769,-0.26 3.413,0.964 3.672,2.732 0.26,1.769 -0.963,3.413 -2.732,3.673 -1.77,0.26 -3.413,-0.963 -3.673,-2.732 -0.26,-1.769 0.964,-3.414 2.733,-3.673 z"
   style="fill:#4d4d4d" />

	<path
   id="path3792"
   d="m 122.169,55.462 c -10.884,-1.145 -20.634,6.751 -21.779,17.634 -0.29,2.756 0.009,5.437 0.78,7.926 8.441,1.35 15.538,6.661 19.35,13.95 9.84,-0.198 18.228,-7.688 19.283,-17.731 1.145,-10.884 -6.75,-20.635 -17.634,-21.779 z m 2.1,13.809 c 0.188,-1.778 1.779,-3.068 3.558,-2.881 1.777,0.187 3.066,1.779 2.881,3.558 -0.188,1.778 -1.779,3.067 -3.558,2.881 -1.779,-0.186 -3.069,-1.78 -2.881,-3.558 z m -13.464,-1.416 c 0.188,-1.778 1.781,-3.068 3.559,-2.881 1.778,0.187 3.067,1.78 2.881,3.558 -0.188,1.778 -1.78,3.068 -3.559,2.88 -1.779,-0.186 -3.067,-1.779 -2.881,-3.557 z m 8.012,19.485 c -6.251,-0.657 -10.921,-4.963 -10.432,-9.617 l 22.635,2.38 c -0.49,4.654 -5.954,7.895 -12.203,7.237 z"
   style="fill:#4d4d4d" />

	<path
   id="path3794"
   d="m 96.515,130.559 c 12.856,0.166 23.414,-10.122 23.581,-22.979 C 120.263,94.723 109.974,84.165 97.117,83.998 84.26,83.831 73.701,94.119 73.535,106.976 c -0.167,12.858 10.122,23.416 22.98,23.583 z m 8.398,-34.384 c 2.1,0.027 3.779,1.752 3.754,3.853 -0.027,2.1 -1.752,3.781 -3.853,3.754 -2.1,-0.027 -3.782,-1.752 -3.753,-3.852 0.028,-2.102 1.751,-3.782 3.852,-3.755 z m 5.213,15.7 c -0.07,5.498 -6.114,9.877 -13.497,9.781 -7.384,-0.095 -13.312,-4.63 -13.24,-10.128 l 26.737,0.347 z M 89.009,95.969 c 2.1,0.027 3.78,1.752 3.753,3.853 -0.027,2.101 -1.751,3.781 -3.852,3.753 -2.102,-0.027 -3.781,-1.752 -3.754,-3.852 0.027,-2.101 1.753,-3.782 3.853,-3.754 z"
   style="fill:#4d4d4d" />

</g>
    <g
       style="fill:#ff0000"
       id="Captions"
       transform="translate(836.27188,433.06188)">
	
	
	
	
	
	<line
   style="fill:#ff0000;stroke:#ffffff;stroke-miterlimit:10"
   stroke-miterlimit="10"
   x1="8"
   y1="-14.5"
   x2="18"
   y2="-14.5"
   id="line4136" />

	<line
   style="fill:#ff0000;stroke:#ffffff;stroke-miterlimit:10"
   stroke-miterlimit="10"
   x1="-179"
   y1="16.5"
   x2="-162"
   y2="16.5"
   id="line4138" />

	<g
   style="fill:#ff0000"
   id="g4140">
		<g
   style="fill:#ff0000"
   id="g4142">
			<g
   style="fill:#ff0000"
   id="g4144">
				
				
				
			</g>

		</g>

	</g>

	
	
	
	
	
	
	
	
	
	
	
	
	
	
	<g
   style="fill:#ff0000"
   id="g4216">
		
		
	</g>

	
	
	
	
</g>
    <g
       style="fill:#4d4d4d"
       id="Your_Icon"
       transform="matrix(1.5,0,0,1.5090909,1157.3702,468.08087)">
	<path
   style="fill:#4d4d4d"
   d="m -604.43464,-3.5781444 c -1.924,-6.374 -7.835,-11.0179996 -14.836,-11.0179996 -2.307,0 -4.487,0.518 -6.454,1.421 -5.038,-6.347 -12.814,-10.421 -21.546,-10.421 -14.39,0 -26.19,11.053 -27.392,25.1319996 -7.389,0.932 -13.108,7.226 -13.108,14.8680004 0,8.284 6.716,15 15,15 h 68 c 9.389,0 17,-7.835 17,-17.5 0,-9.5480004 -7.432,-17.2960004 -16.664,-17.4820004 z m -0.336,30.9820004 h -68 c -6.065,0 -11,-4.935 -11,-11 0,-5.522 4.131,-10.2080004 9.609,-10.8990004 l 3.21,-0.405 0.275,-3.223 c 1.028,-12.0409996 11.309,-21.4729996 23.406,-21.4729996 7.208,0 13.919,3.247 18.413,8.908 l 1.951,2.4579996 2.852,-1.31 c 1.525,-0.7009996 3.135,-1.0559996 4.784,-1.0559996 5.028,0 9.554,3.3609996 11.007,8.1729996 l 0.84,2.78500004 2.908,0.059 c 7.028,0.141 12.745,6.18999996 12.745,13.48300036 0,7.444 -5.832,13.5 -13,13.5 z"
   id="path4231" />

</g>
    <rect
       ry="0.21799265"
       rx="0.46024668"
       y="518.97217"
       x="125.71429"
       height="90"
       width="150"
       id="rect4545"
       style="fill:#00ff00;fill-opacity:1;stroke:none" />
    <rect
       style="fill:#ffaaaa;fill-opacity:1;stroke:none"
       id="rect4547"
       width="150"
       height="90"
       x="275.71399"
       y="518.97217"
       rx="0.46024668"
       ry="0.21799265" />
    <rect
       ry="0.21799265"
       rx="0.46024668"
       y="518.97217"
       x="425.71399"
       height="90"
       width="150"
       id="rect4549"
       style="fill:#00ff00;fill-opacity:1;stroke:none" />
    <g
       transform="matrix(1.2146934,0,0,1.2146934,290.10444,507.08199)"
       id="g4551"
       style="fill:#ffff00">
      <rect
         x="27"
         y="39"
         width="12"
         height="42"
         id="rect4553"
         style="fill:#ffff00" />
      <rect
         x="45"
         y="51"
         width="12"
         height="30"
         id="rect4555"
         style="fill:#ffff00" />
      <rect
         x="8"
         y="62"
         width="13"
         height="19"
         id="rect4557"
         style="fill:#ffff00" />
      <rect
         x="81"
         y="43"
         width="13"
         height="38"
         id="rect4559"
         style="fill:#ffff00" />
      <path
         d="M 99.902,25 99.896,12.744 87.486,12.67 87.489,17 c 0,0 2.443,0 4.862,0 L 76,34.185 V 13 H 63 V 42.114 L 29.802,16.773 -0.108,55.967 3.445,58.668 30.638,23.006 63,47.672 V 81 H 76 V 40.487 L 96,20.446 V 25 h 3.902 z"
         id="path4561"
         style="fill:#ffff00" />
    </g>
    <circle
       id="circle4565"
       r="3.237"
       cy="69.917"
       cx="68.880997"
       sodipodi:cx="68.880997"
       sodipodi:cy="69.917"
       sodipodi:rx="3.237"
       sodipodi:ry="3.237"
       style="fill:none"
       d="m 72.117997,69.917 c 0,1.787746 -1.449255,3.237 -3.237,3.237 -1.787746,0 -3.237,-1.449254 -3.237,-3.237 0,-1.787746 1.449254,-3.237 3.237,-3.237 1.787745,0 3.237,1.449254 3.237,3.237 z"
       transform="matrix(1.1035675,0,0,1.1035675,392.23911,461.3893)" />
    <circle
       id="circle4567"
       r="3.237"
       cy="67.950996"
       cx="82.275002"
       sodipodi:cx="82.275002"
       sodipodi:cy="67.950996"
       sodipodi:rx="3.237"
       sodipodi:ry="3.237"
       style="fill:none"
       d="m 85.512002,67.950996 c 0,1.787746 -1.449255,3.237 -3.237,3.237 -1.787746,0 -3.237,-1.449254 -3.237,-3.237 0,-1.787745 1.449254,-3.237 3.237,-3.237 1.787745,0 3.237,1.449255 3.237,3.237 z"
       transform="matrix(1.1035675,0,0,1.1035675,392.23911,461.3893)" />
    <circle
       id="circle4569"
       r="3.237"
       cy="68.194"
       cx="114.024"
       sodipodi:cx="114.024"
       sodipodi:cy="68.194"
       sodipodi:rx="3.237"
       sodipodi:ry="3.237"
       style="fill:none"
       d="m 117.261,68.194 c 0,1.787746 -1.44925,3.237 -3.237,3.237 -1.78774,0 -3.237,-1.449254 -3.237,-3.237 0,-1.787745 1.44926,-3.237 3.237,-3.237 1.78775,0 3.237,1.449255 3.237,3.237 z"
       transform="matrix(1.1035675,0,0,1.1035675,392.23911,461.3893)" />
    <path
       id="path4571"
       d="m 523.36169,557.77489 c 6.89619,0.72614 12.92609,-2.85052 13.46683,-7.98652 l -24.97925,-2.62649 c -0.53964,5.136 4.61402,9.88907 11.51242,10.61301 z"
       style="fill:none" />
    <circle
       id="circle4573"
       r="3.237"
       cy="69.610001"
       cx="127.488"
       sodipodi:cx="127.488"
       sodipodi:cy="69.610001"
       sodipodi:rx="3.237"
       sodipodi:ry="3.237"
       style="fill:none"
       d="m 130.725,69.610001 c 0,1.787745 -1.44926,3.237 -3.237,3.237 -1.78775,0 -3.237,-1.449255 -3.237,-3.237 0,-1.787746 1.44925,-3.237 3.237,-3.237 1.78774,0 3.237,1.449254 3.237,3.237 z"
       transform="matrix(1.1035675,0,0,1.1035675,392.23911,461.3893)" />
    <circle
       id="circle4575"
       r="3.237"
       cy="67.950996"
       cx="82.275002"
       sodipodi:cx="82.275002"
       sodipodi:cy="67.950996"
       sodipodi:rx="3.237"
       sodipodi:ry="3.237"
       style="fill:none"
       d="m 85.512002,67.950996 c 0,1.787746 -1.449255,3.237 -3.237,3.237 -1.787746,0 -3.237,-1.449254 -3.237,-3.237 0,-1.787745 1.449254,-3.237 3.237,-3.237 1.787745,0 3.237,1.449255 3.237,3.237 z"
       transform="matrix(1.1035675,0,0,1.1035675,392.23911,461.3893)" />
    <circle
       id="circle4577"
       r="3.237"
       cy="69.917"
       cx="68.880997"
       sodipodi:cx="68.880997"
       sodipodi:cy="69.917"
       sodipodi:rx="3.237"
       sodipodi:ry="3.237"
       style="fill:none"
       d="m 72.117997,69.917 c 0,1.787746 -1.449255,3.237 -3.237,3.237 -1.787746,0 -3.237,-1.449254 -3.237,-3.237 0,-1.787746 1.449254,-3.237 3.237,-3.237 1.787745,0 3.237,1.449254 3.237,3.237 z"
       transform="matrix(1.1035675,0,0,1.1035675,392.23911,461.3893)" />
    <path
       id="path4579"
       d="m 523.36169,557.77489 c 6.89619,0.72614 12.92609,-2.85052 13.46683,-7.98652 l -24.97925,-2.62649 c -0.53964,5.136 4.61402,9.88907 11.51242,10.61301 z"
       style="fill:none" />
    <circle
       id="circle4581"
       r="3.237"
       cy="69.610001"
       cx="127.488"
       sodipodi:cx="127.488"
       sodipodi:cy="69.610001"
       sodipodi:rx="3.237"
       sodipodi:ry="3.237"
       style="fill:none"
       d="m 130.725,69.610001 c 0,1.787745 -1.44926,3.237 -3.237,3.237 -1.78775,0 -3.237,-1.449255 -3.237,-3.237 0,-1.787746 1.44925,-3.237 3.237,-3.237 1.78774,0 3.237,1.449254 3.237,3.237 z"
       transform="matrix(1.1035675,0,0,1.1035675,392.23911,461.3893)" />
    <circle
       id="circle4583"
       r="3.237"
       cy="68.194"
       cx="114.024"
       sodipodi:cx="114.024"
       sodipodi:cy="68.194"
       sodipodi:rx="3.237"
       sodipodi:ry="3.237"
       style="fill:none"
       d="m 117.261,68.194 c 0,1.787746 -1.44925,3.237 -3.237,3.237 -1.78774,0 -3.237,-1.449254 -3.237,-3.237 0,-1.787745 1.44926,-3.237 3.237,-3.237 1.78775,0 3.237,1.449255 3.237,3.237 z"
       transform="matrix(1.1035675,0,0,1.1035675,392.23911,461.3893)" />
    <path
       style="fill:#ffff00"
       id="path4585"
       d="m 480.28062,557.36546 c -0.54185,0.13684 -1.09363,0.25713 -1.66418,0.341 -6.86198,1.00756 -13.03313,-2.31859 -13.78245,-7.42811 l 24.84903,-3.64839 c 0.31562,2.14644 -0.38736,4.26308 -1.80434,6.07514 3.0293,-1.27131 6.31462,-2.04491 9.75444,-2.227 0.86188,-2.93329 1.13005,-6.08949 0.65772,-9.31191 -1.75467,-11.94942 -12.86428,-20.21294 -24.81261,-18.45937 -11.94832,1.75467 -20.21294,12.86318 -18.45827,24.81261 1.42912,9.73457 9.06802,17.01922 18.31039,18.43841 1.75909,-3.29194 4.12624,-6.20315 6.95027,-8.59238 z m 2.23473,-24.52237 c 1.95221,-0.28693 3.76647,1.06384 4.0534,3.01494 0.28693,1.95111 -1.06274,3.76648 -3.01495,4.05341 -1.95221,0.28693 -3.76758,-1.06274 -4.0534,-3.01495 -0.28693,-1.95221 1.06273,-3.76647 3.01495,-4.0534 z m -14.78008,2.17072 c 1.95221,-0.28693 3.76647,1.06383 4.0523,3.01494 0.28692,1.95221 -1.06274,3.76648 -3.01495,4.05341 -1.95331,0.28692 -3.76648,-1.06274 -4.0534,-3.01495 -0.28693,-1.95221 1.06384,-3.76758 3.01605,-4.0534 z" />
    <path
       style="fill:#ffff00"
       id="path4587"
       d="m 527.06085,522.59536 c -12.01123,-1.26358 -22.77101,7.45018 -24.0346,19.46031 -0.32003,3.04143 0.01,6.0001 0.86078,8.74688 9.31522,1.48981 17.14724,7.35086 21.35404,15.39476 10.8591,-0.2185 20.11582,-8.48422 21.28009,-19.56735 1.26358,-12.01123 -7.44908,-22.77212 -19.46031,-24.0346 z m 2.31749,15.23916 c 0.20747,-1.96214 1.96325,-3.38574 3.92649,-3.17937 1.96104,0.20636 3.38354,1.96324 3.17938,3.92649 -0.20747,1.96214 -1.96325,3.38464 -3.92649,3.17938 -1.96325,-0.20527 -3.38685,-1.96435 -3.17938,-3.9265 z m -14.85843,-1.56265 c 0.20747,-1.96214 1.96545,-3.38574 3.92759,-3.17938 1.96215,0.20637 3.38465,1.96435 3.17938,3.9265 -0.20747,1.96214 -1.96435,3.38574 -3.9276,3.17827 -1.96324,-0.20526 -3.38464,-1.96324 -3.17937,-3.92539 z m 8.84178,21.50302 c -6.8984,-0.72505 -12.05206,-5.47701 -11.51242,-10.61301 l 24.97925,2.62649 c -0.54074,5.136 -6.57064,8.71266 -13.46683,7.98652 z" />
    <path
       style="fill:#ffff00"
       id="path4589"
       d="m 498.74993,605.46997 c 14.18746,0.18319 25.83893,-11.17031 26.02322,-25.35888 0.1843,-14.18857 -11.17031,-25.84003 -25.35888,-26.02433 -14.18856,-0.18429 -25.84113,11.16921 -26.02432,25.35778 -0.1843,14.18967 11.17031,25.84113 25.35998,26.02543 z m 9.26776,-37.94507 c 2.31749,0.0298 4.17038,1.93345 4.14279,4.25205 -0.0298,2.31749 -1.93345,4.17259 -4.25205,4.14279 -2.31749,-0.0298 -4.17369,-1.93345 -4.14168,-4.25094 0.0309,-2.3197 1.93234,-4.17369 4.25094,-4.1439 z m 5.75289,17.32601 c -0.0773,6.06742 -6.74721,10.89994 -14.89485,10.794 -8.14874,-0.10484 -14.69069,-5.10952 -14.61123,-11.17693 l 29.50608,0.38293 z m -23.30403,-17.55334 c 2.31749,0.0298 4.17148,1.93345 4.14169,4.25204 -0.0298,2.3186 -1.93235,4.17259 -4.25094,4.14169 -2.3197,-0.0298 -4.17259,-1.93345 -4.1428,-4.25094 0.0298,-2.31859 1.93456,-4.17369 4.25205,-4.14279 z" />
    <g
       transform="matrix(1.5,0,0,1.5090909,1157.3702,558.08088)"
       id="g4591"
       style="fill:#ffff00">
	<path
   id="path4593"
   d="m -604.43464,-3.5781444 c -1.924,-6.374 -7.835,-11.0179996 -14.836,-11.0179996 -2.307,0 -4.487,0.518 -6.454,1.421 -5.038,-6.347 -12.814,-10.421 -21.546,-10.421 -14.39,0 -26.19,11.053 -27.392,25.1319996 -7.389,0.932 -13.108,7.226 -13.108,14.8680004 0,8.284 6.716,15 15,15 h 68 c 9.389,0 17,-7.835 17,-17.5 0,-9.5480004 -7.432,-17.2960004 -16.664,-17.4820004 z m -0.336,30.9820004 h -68 c -6.065,0 -11,-4.935 -11,-11 0,-5.522 4.131,-10.2080004 9.609,-10.8990004 l 3.21,-0.405 0.275,-3.223 c 1.028,-12.0409996 11.309,-21.4729996 23.406,-21.4729996 7.208,0 13.919,3.247 18.413,8.908 l 1.951,2.4579996 2.852,-1.31 c 1.525,-0.7009996 3.135,-1.0559996 4.784,-1.0559996 5.028,0 9.554,3.3609996 11.007,8.1729996 l 0.84,2.78500004 2.908,0.059 c 7.028,0.141 12.745,6.18999996 12.745,13.48300036 0,7.444 -5.832,13.5 -13,13.5 z"
   style="fill:#ffff00" />

</g>
    <rect
       ry="0.21799265"
       rx="0.46024668"
       y="622.97217"
       x="125.71429"
       height="90"
       width="150"
       id="rect5380"
       style="fill:none;fill-opacity:1;stroke:none"
       inkscape:export-filename="/Users/neal/Desktop/comedy/sprite.png"
       inkscape:export-xdpi="90"
       inkscape:export-ydpi="90" />
    <rect
       style="fill:none;fill-opacity:1;stroke:none"
       id="rect5382"
       width="150"
       height="90"
       x="275.71399"
       y="622.97217"
       rx="0.46024668"
       ry="0.21799265"
       inkscape:export-filename="/Users/neal/Desktop/comedy/sprite.png"
       inkscape:export-xdpi="90"
       inkscape:export-ydpi="90" />
    <rect
       ry="0.21799265"
       rx="0.46024668"
       y="622.97217"
       x="425.71399"
       height="90"
       width="150"
       id="rect5384"
       style="fill:none;fill-opacity:1;stroke:none"
       inkscape:export-filename="/Users/neal/Desktop/comedy/sprite.png"
       inkscape:export-xdpi="90"
       inkscape:export-ydpi="90" />
    <g
       style="fill:#4d4d4d"
       transform="matrix(1.2146934,0,0,1.2146934,290.10444,611.08198)"
       id="g5386"
       inkscape:export-filename="/Users/neal/Desktop/comedy/sprite.png"
       inkscape:export-xdpi="90"
       inkscape:export-ydpi="90">
      <rect
         style="fill:#4d4d4d"
         x="27"
         y="39"
         width="12"
         height="42"
         id="rect5388" />
      <rect
         style="fill:#4d4d4d"
         x="45"
         y="51"
         width="12"
         height="30"
         id="rect5390" />
      <rect
         style="fill:#4d4d4d"
         x="8"
         y="62"
         width="13"
         height="19"
         id="rect5392" />
      <rect
         style="fill:#4d4d4d"
         x="81"
         y="43"
         width="13"
         height="38"
         id="rect5394" />
      <path
         style="fill:#4d4d4d"
         d="M 99.902,25 99.896,12.744 87.486,12.67 87.489,17 c 0,0 2.443,0 4.862,0 L 76,34.185 V 13 H 63 V 42.114 L 29.802,16.773 -0.108,55.967 3.445,58.668 30.638,23.006 63,47.672 V 81 H 76 V 40.487 L 96,20.446 V 25 h 3.902 z"
         id="path5396" />
    </g>
    <g
       style="fill:#4d4d4d"
       transform="matrix(1.1035675,0,0,1.1035675,392.23911,565.38929)"
       id="g5398"
       inkscape:export-filename="/Users/neal/Desktop/comedy/sprite.png"
       inkscape:export-xdpi="90"
       inkscape:export-ydpi="90">
	<circle
   d="m 72.117997,69.917 c 0,1.787746 -1.449255,3.237 -3.237,3.237 -1.787746,0 -3.237,-1.449254 -3.237,-3.237 0,-1.787746 1.449254,-3.237 3.237,-3.237 1.787745,0 3.237,1.449254 3.237,3.237 z"
   style="fill:none"
   sodipodi:ry="3.237"
   sodipodi:rx="3.237"
   sodipodi:cy="69.917"
   sodipodi:cx="68.880997"
   cx="68.880997"
   cy="69.917"
   r="3.237"
   id="circle5400" />

	<circle
   d="m 85.512002,67.950996 c 0,1.787746 -1.449255,3.237 -3.237,3.237 -1.787746,0 -3.237,-1.449254 -3.237,-3.237 0,-1.787745 1.449254,-3.237 3.237,-3.237 1.787745,0 3.237,1.449255 3.237,3.237 z"
   style="fill:none"
   sodipodi:ry="3.237"
   sodipodi:rx="3.237"
   sodipodi:cy="67.950996"
   sodipodi:cx="82.275002"
   cx="82.275002"
   cy="67.950996"
   r="3.237"
   id="circle5402" />

	<circle
   d="m 117.261,68.194 c 0,1.787746 -1.44925,3.237 -3.237,3.237 -1.78774,0 -3.237,-1.449254 -3.237,-3.237 0,-1.787745 1.44926,-3.237 3.237,-3.237 1.78775,0 3.237,1.449255 3.237,3.237 z"
   style="fill:none"
   sodipodi:ry="3.237"
   sodipodi:rx="3.237"
   sodipodi:cy="68.194"
   sodipodi:cx="114.024"
   cx="114.024"
   cy="68.194"
   r="3.237"
   id="circle5404" />

	<path
   style="fill:none"
   d="m 118.817,87.34 c 6.249,0.658 11.713,-2.583 12.203,-7.237 l -22.635,-2.38 c -0.489,4.654 4.181,8.961 10.432,9.617 z"
   id="path5406" />

	<circle
   d="m 130.725,69.610001 c 0,1.787745 -1.44926,3.237 -3.237,3.237 -1.78775,0 -3.237,-1.449255 -3.237,-3.237 0,-1.787746 1.44925,-3.237 3.237,-3.237 1.78774,0 3.237,1.449254 3.237,3.237 z"
   style="fill:none"
   sodipodi:ry="3.237"
   sodipodi:rx="3.237"
   sodipodi:cy="69.610001"
   sodipodi:cx="127.488"
   cx="127.488"
   cy="69.610001"
   r="3.237"
   id="circle5408" />

	<circle
   d="m 85.512002,67.950996 c 0,1.787746 -1.449255,3.237 -3.237,3.237 -1.787746,0 -3.237,-1.449254 -3.237,-3.237 0,-1.787745 1.449254,-3.237 3.237,-3.237 1.787745,0 3.237,1.449255 3.237,3.237 z"
   style="fill:none"
   sodipodi:ry="3.237"
   sodipodi:rx="3.237"
   sodipodi:cy="67.950996"
   sodipodi:cx="82.275002"
   cx="82.275002"
   cy="67.950996"
   r="3.237"
   id="circle5410" />

	<circle
   d="m 72.117997,69.917 c 0,1.787746 -1.449255,3.237 -3.237,3.237 -1.787746,0 -3.237,-1.449254 -3.237,-3.237 0,-1.787746 1.449254,-3.237 3.237,-3.237 1.787745,0 3.237,1.449254 3.237,3.237 z"
   style="fill:none"
   sodipodi:ry="3.237"
   sodipodi:rx="3.237"
   sodipodi:cy="69.917"
   sodipodi:cx="68.880997"
   cx="68.880997"
   cy="69.917"
   r="3.237"
   id="circle5412" />

	<path
   style="fill:none"
   d="m 118.817,87.34 c 6.249,0.658 11.713,-2.583 12.203,-7.237 l -22.635,-2.38 c -0.489,4.654 4.181,8.961 10.432,9.617 z"
   id="path5414" />

	<circle
   d="m 130.725,69.610001 c 0,1.787745 -1.44926,3.237 -3.237,3.237 -1.78775,0 -3.237,-1.449255 -3.237,-3.237 0,-1.787746 1.44925,-3.237 3.237,-3.237 1.78774,0 3.237,1.449254 3.237,3.237 z"
   style="fill:none"
   sodipodi:ry="3.237"
   sodipodi:rx="3.237"
   sodipodi:cy="69.610001"
   sodipodi:cx="127.488"
   cx="127.488"
   cy="69.610001"
   r="3.237"
   id="circle5416" />

	<circle
   d="m 117.261,68.194 c 0,1.787746 -1.44925,3.237 -3.237,3.237 -1.78774,0 -3.237,-1.449254 -3.237,-3.237 0,-1.787745 1.44926,-3.237 3.237,-3.237 1.78775,0 3.237,1.449255 3.237,3.237 z"
   style="fill:none"
   sodipodi:ry="3.237"
   sodipodi:rx="3.237"
   sodipodi:cy="68.194"
   sodipodi:cx="114.024"
   cx="114.024"
   cy="68.194"
   r="3.237"
   id="circle5418" />

	<path
   style="fill:#4d4d4d"
   d="m 79.779,86.969 c -0.491,0.124 -0.991,0.233 -1.508,0.309 -6.218,0.913 -11.81,-2.101 -12.489,-6.731 l 22.517,-3.306 c 0.286,1.945 -0.351,3.863 -1.635,5.505 2.745,-1.152 5.722,-1.853 8.839,-2.018 C 96.284,78.07 96.527,75.21 96.099,72.29 94.509,61.462 84.442,53.974 73.615,55.563 62.788,57.153 55.299,67.219 56.889,78.047 c 1.295,8.821 8.217,15.422 16.592,16.708 1.594,-2.983 3.739,-5.621 6.298,-7.786 z m 2.025,-22.221 c 1.769,-0.26 3.413,0.964 3.673,2.732 0.26,1.768 -0.963,3.413 -2.732,3.673 -1.769,0.26 -3.414,-0.963 -3.673,-2.732 -0.26,-1.769 0.963,-3.413 2.732,-3.673 z m -13.393,1.967 c 1.769,-0.26 3.413,0.964 3.672,2.732 0.26,1.769 -0.963,3.413 -2.732,3.673 -1.77,0.26 -3.413,-0.963 -3.673,-2.732 -0.26,-1.769 0.964,-3.414 2.733,-3.673 z"
   id="path5420" />

	<path
   style="fill:#4d4d4d"
   d="m 122.169,55.462 c -10.884,-1.145 -20.634,6.751 -21.779,17.634 -0.29,2.756 0.009,5.437 0.78,7.926 8.441,1.35 15.538,6.661 19.35,13.95 9.84,-0.198 18.228,-7.688 19.283,-17.731 1.145,-10.884 -6.75,-20.635 -17.634,-21.779 z m 2.1,13.809 c 0.188,-1.778 1.779,-3.068 3.558,-2.881 1.777,0.187 3.066,1.779 2.881,3.558 -0.188,1.778 -1.779,3.067 -3.558,2.881 -1.779,-0.186 -3.069,-1.78 -2.881,-3.558 z m -13.464,-1.416 c 0.188,-1.778 1.781,-3.068 3.559,-2.881 1.778,0.187 3.067,1.78 2.881,3.558 -0.188,1.778 -1.78,3.068 -3.559,2.88 -1.779,-0.186 -3.067,-1.779 -2.881,-3.557 z m 8.012,19.485 c -6.251,-0.657 -10.921,-4.963 -10.432,-9.617 l 22.635,2.38 c -0.49,4.654 -5.954,7.895 -12.203,7.237 z"
   id="path5422" />

	<path
   style="fill:#4d4d4d"
   d="m 96.515,130.559 c 12.856,0.166 23.414,-10.122 23.581,-22.979 C 120.263,94.723 109.974,84.165 97.117,83.998 84.26,83.831 73.701,94.119 73.535,106.976 c -0.167,12.858 10.122,23.416 22.98,23.583 z m 8.398,-34.384 c 2.1,0.027 3.779,1.752 3.754,3.853 -0.027,2.1 -1.752,3.781 -3.853,3.754 -2.1,-0.027 -3.782,-1.752 -3.753,-3.852 0.028,-2.102 1.751,-3.782 3.852,-3.755 z m 5.213,15.7 c -0.07,5.498 -6.114,9.877 -13.497,9.781 -7.384,-0.095 -13.312,-4.63 -13.24,-10.128 l 26.737,0.347 z M 89.009,95.969 c 2.1,0.027 3.78,1.752 3.753,3.853 -0.027,2.101 -1.751,3.781 -3.852,3.753 -2.102,-0.027 -3.781,-1.752 -3.754,-3.852 0.027,-2.101 1.753,-3.782 3.853,-3.754 z"
   id="path5424" />

</g>
    <g
       transform="matrix(1.5,0,0,1.5090909,1157.3702,662.08087)"
       id="g5426"
       style="fill:#4d4d4d"
       inkscape:export-filename="/Users/neal/Desktop/comedy/sprite.png"
       inkscape:export-xdpi="90"
       inkscape:export-ydpi="90">
	<path
   id="path5428"
   d="m -604.43464,-3.5781444 c -1.924,-6.374 -7.835,-11.0179996 -14.836,-11.0179996 -2.307,0 -4.487,0.518 -6.454,1.421 -5.038,-6.347 -12.814,-10.421 -21.546,-10.421 -14.39,0 -26.19,11.053 -27.392,25.1319996 -7.389,0.932 -13.108,7.226 -13.108,14.8680004 0,8.284 6.716,15 15,15 h 68 c 9.389,0 17,-7.835 17,-17.5 0,-9.5480004 -7.432,-17.2960004 -16.664,-17.4820004 z m -0.336,30.9820004 h -68 c -6.065,0 -11,-4.935 -11,-11 0,-5.522 4.131,-10.2080004 9.609,-10.8990004 l 3.21,-0.405 0.275,-3.223 c 1.028,-12.0409996 11.309,-21.4729996 23.406,-21.4729996 7.208,0 13.919,3.247 18.413,8.908 l 1.951,2.4579996 2.852,-1.31 c 1.525,-0.7009996 3.135,-1.0559996 4.784,-1.0559996 5.028,0 9.554,3.3609996 11.007,8.1729996 l 0.84,2.78500004 2.908,0.059 c 7.028,0.141 12.745,6.18999996 12.745,13.48300036 0,7.444 -5.832,13.5 -13,13.5 z"
   style="fill:#4d4d4d" />

</g>
    <rect
       style="fill:none;fill-opacity:1;stroke:none"
       id="rect5430"
       width="150"
       height="90"
       x="125.71429"
       y="712.97217"
       rx="0.46024668"
       ry="0.21799265"
       inkscape:export-filename="/Users/neal/Desktop/comedy/sprite.png"
       inkscape:export-xdpi="90"
       inkscape:export-ydpi="90" />
    <rect
       ry="0.21799265"
       rx="0.46024668"
       y="712.97217"
       x="275.71399"
       height="90"
       width="150"
       id="rect5432"
       style="fill:none;fill-opacity:1;stroke:none"
       inkscape:export-filename="/Users/neal/Desktop/comedy/sprite.png"
       inkscape:export-xdpi="90"
       inkscape:export-ydpi="90" />
    <rect
       style="fill:none;fill-opacity:1;stroke:none"
       id="rect5434"
       width="150"
       height="90"
       x="425.71399"
       y="712.97217"
       rx="0.46024668"
       ry="0.21799265"
       inkscape:export-filename="/Users/neal/Desktop/comedy/sprite.png"
       inkscape:export-xdpi="90"
       inkscape:export-ydpi="90" />
    <g
       style="fill:#0000ff"
       id="g5436"
       transform="matrix(1.2146934,0,0,1.2146934,290.10444,701.08199)"
       inkscape:export-filename="/Users/neal/Desktop/comedy/sprite.png"
       inkscape:export-xdpi="90"
       inkscape:export-ydpi="90">
      <rect
         style="fill:#0000ff"
         id="rect5438"
         height="42"
         width="12"
         y="39"
         x="27" />
      <rect
         style="fill:#0000ff"
         id="rect5440"
         height="30"
         width="12"
         y="51"
         x="45" />
      <rect
         style="fill:#0000ff"
         id="rect5442"
         height="19"
         width="13"
         y="62"
         x="8" />
      <rect
         style="fill:#0000ff"
         id="rect5444"
         height="38"
         width="13"
         y="43"
         x="81" />
      <path
         style="fill:#0000ff"
         id="path5446"
         d="M 99.902,25 99.896,12.744 87.486,12.67 87.489,17 c 0,0 2.443,0 4.862,0 L 76,34.185 V 13 H 63 V 42.114 L 29.802,16.773 -0.108,55.967 3.445,58.668 30.638,23.006 63,47.672 V 81 H 76 V 40.487 L 96,20.446 V 25 h 3.902 z" />
    </g>
    <circle
       transform="matrix(1.1035675,0,0,1.1035675,392.23911,655.3893)"
       d="m 72.117997,69.917 c 0,1.787746 -1.449255,3.237 -3.237,3.237 -1.787746,0 -3.237,-1.449254 -3.237,-3.237 0,-1.787746 1.449254,-3.237 3.237,-3.237 1.787745,0 3.237,1.449254 3.237,3.237 z"
       style="fill:none"
       sodipodi:ry="3.237"
       sodipodi:rx="3.237"
       sodipodi:cy="69.917"
       sodipodi:cx="68.880997"
       cx="68.880997"
       cy="69.917"
       r="3.237"
       id="circle5448"
       inkscape:export-filename="/Users/neal/Desktop/comedy/sprite.png"
       inkscape:export-xdpi="90"
       inkscape:export-ydpi="90" />
    <circle
       transform="matrix(1.1035675,0,0,1.1035675,392.23911,655.3893)"
       d="m 85.512002,67.950996 c 0,1.787746 -1.449255,3.237 -3.237,3.237 -1.787746,0 -3.237,-1.449254 -3.237,-3.237 0,-1.787745 1.449254,-3.237 3.237,-3.237 1.787745,0 3.237,1.449255 3.237,3.237 z"
       style="fill:none"
       sodipodi:ry="3.237"
       sodipodi:rx="3.237"
       sodipodi:cy="67.950996"
       sodipodi:cx="82.275002"
       cx="82.275002"
       cy="67.950996"
       r="3.237"
       id="circle5450"
       inkscape:export-filename="/Users/neal/Desktop/comedy/sprite.png"
       inkscape:export-xdpi="90"
       inkscape:export-ydpi="90" />
    <circle
       transform="matrix(1.1035675,0,0,1.1035675,392.23911,655.3893)"
       d="m 117.261,68.194 c 0,1.787746 -1.44925,3.237 -3.237,3.237 -1.78774,0 -3.237,-1.449254 -3.237,-3.237 0,-1.787745 1.44926,-3.237 3.237,-3.237 1.78775,0 3.237,1.449255 3.237,3.237 z"
       style="fill:none"
       sodipodi:ry="3.237"
       sodipodi:rx="3.237"
       sodipodi:cy="68.194"
       sodipodi:cx="114.024"
       cx="114.024"
       cy="68.194"
       r="3.237"
       id="circle5452"
       inkscape:export-filename="/Users/neal/Desktop/comedy/sprite.png"
       inkscape:export-xdpi="90"
       inkscape:export-ydpi="90" />
    <path
       style="fill:none"
       d="m 523.36169,751.77489 c 6.89619,0.72614 12.92609,-2.85052 13.46683,-7.98652 l -24.97925,-2.62649 c -0.53964,5.136 4.61402,9.88907 11.51242,10.61301 z"
       id="path5454"
       inkscape:export-filename="/Users/neal/Desktop/comedy/sprite.png"
       inkscape:export-xdpi="90"
       inkscape:export-ydpi="90" />
    <circle
       transform="matrix(1.1035675,0,0,1.1035675,392.23911,655.3893)"
       d="m 130.725,69.610001 c 0,1.787745 -1.44926,3.237 -3.237,3.237 -1.78775,0 -3.237,-1.449255 -3.237,-3.237 0,-1.787746 1.44925,-3.237 3.237,-3.237 1.78774,0 3.237,1.449254 3.237,3.237 z"
       style="fill:none"
       sodipodi:ry="3.237"
       sodipodi:rx="3.237"
       sodipodi:cy="69.610001"
       sodipodi:cx="127.488"
       cx="127.488"
       cy="69.610001"
       r="3.237"
       id="circle5456"
       inkscape:export-filename="/Users/neal/Desktop/comedy/sprite.png"
       inkscape:export-xdpi="90"
       inkscape:export-ydpi="90" />
    <circle
       transform="matrix(1.1035675,0,0,1.1035675,392.23911,655.3893)"
       d="m 85.512002,67.950996 c 0,1.787746 -1.449255,3.237 -3.237,3.237 -1.787746,0 -3.237,-1.449254 -3.237,-3.237 0,-1.787745 1.449254,-3.237 3.237,-3.237 1.787745,0 3.237,1.449255 3.237,3.237 z"
       style="fill:none"
       sodipodi:ry="3.237"
       sodipodi:rx="3.237"
       sodipodi:cy="67.950996"
       sodipodi:cx="82.275002"
       cx="82.275002"
       cy="67.950996"
       r="3.237"
       id="circle5458"
       inkscape:export-filename="/Users/neal/Desktop/comedy/sprite.png"
       inkscape:export-xdpi="90"
       inkscape:export-ydpi="90" />
    <circle
       transform="matrix(1.1035675,0,0,1.1035675,392.23911,655.3893)"
       d="m 72.117997,69.917 c 0,1.787746 -1.449255,3.237 -3.237,3.237 -1.787746,0 -3.237,-1.449254 -3.237,-3.237 0,-1.787746 1.449254,-3.237 3.237,-3.237 1.787745,0 3.237,1.449254 3.237,3.237 z"
       style="fill:none"
       sodipodi:ry="3.237"
       sodipodi:rx="3.237"
       sodipodi:cy="69.917"
       sodipodi:cx="68.880997"
       cx="68.880997"
       cy="69.917"
       r="3.237"
       id="circle5460"
       inkscape:export-filename="/Users/neal/Desktop/comedy/sprite.png"
       inkscape:export-xdpi="90"
       inkscape:export-ydpi="90" />
    <path
       style="fill:none"
       d="m 523.36169,751.77489 c 6.89619,0.72614 12.92609,-2.85052 13.46683,-7.98652 l -24.97925,-2.62649 c -0.53964,5.136 4.61402,9.88907 11.51242,10.61301 z"
       id="path5462"
       inkscape:export-filename="/Users/neal/Desktop/comedy/sprite.png"
       inkscape:export-xdpi="90"
       inkscape:export-ydpi="90" />
    <circle
       transform="matrix(1.1035675,0,0,1.1035675,392.23911,655.3893)"
       d="m 130.725,69.610001 c 0,1.787745 -1.44926,3.237 -3.237,3.237 -1.78775,0 -3.237,-1.449255 -3.237,-3.237 0,-1.787746 1.44925,-3.237 3.237,-3.237 1.78774,0 3.237,1.449254 3.237,3.237 z"
       style="fill:none"
       sodipodi:ry="3.237"
       sodipodi:rx="3.237"
       sodipodi:cy="69.610001"
       sodipodi:cx="127.488"
       cx="127.488"
       cy="69.610001"
       r="3.237"
       id="circle5464"
       inkscape:export-filename="/Users/neal/Desktop/comedy/sprite.png"
       inkscape:export-xdpi="90"
       inkscape:export-ydpi="90" />
    <circle
       transform="matrix(1.1035675,0,0,1.1035675,392.23911,655.3893)"
       d="m 117.261,68.194 c 0,1.787746 -1.44925,3.237 -3.237,3.237 -1.78774,0 -3.237,-1.449254 -3.237,-3.237 0,-1.787745 1.44926,-3.237 3.237,-3.237 1.78775,0 3.237,1.449255 3.237,3.237 z"
       style="fill:none"
       sodipodi:ry="3.237"
       sodipodi:rx="3.237"
       sodipodi:cy="68.194"
       sodipodi:cx="114.024"
       cx="114.024"
       cy="68.194"
       r="3.237"
       id="circle5466"
       inkscape:export-filename="/Users/neal/Desktop/comedy/sprite.png"
       inkscape:export-xdpi="90"
       inkscape:export-ydpi="90" />
    <g
       id="g5478"
       style="fill:#008000"
       inkscape:export-filename="/Users/neal/Desktop/comedy/sprite.png"
       inkscape:export-xdpi="90"
       inkscape:export-ydpi="90">
      <path
         inkscape:export-ydpi="90"
         inkscape:export-xdpi="90"
         inkscape:export-filename="/Users/neal/Desktop/comedy/sprite.png"
         style="fill:#008000"
         id="path5468"
         d="m 480.28062,751.36546 c -0.54185,0.13684 -1.09363,0.25713 -1.66418,0.341 -6.86198,1.00756 -13.03313,-2.31859 -13.78245,-7.42811 l 24.84903,-3.64839 c 0.31562,2.14644 -0.38736,4.26308 -1.80434,6.07514 3.0293,-1.27131 6.31462,-2.04491 9.75444,-2.227 0.86188,-2.93329 1.13005,-6.08949 0.65772,-9.31191 -1.75467,-11.94942 -12.86428,-20.21294 -24.81261,-18.45937 -11.94832,1.75467 -20.21294,12.86318 -18.45827,24.81261 1.42912,9.73457 9.06802,17.01922 18.31039,18.43841 1.75909,-3.29194 4.12624,-6.20315 6.95027,-8.59238 z m 2.23473,-24.52237 c 1.95221,-0.28693 3.76647,1.06384 4.0534,3.01494 0.28693,1.95111 -1.06274,3.76648 -3.01495,4.05341 -1.95221,0.28693 -3.76758,-1.06274 -4.0534,-3.01495 -0.28693,-1.95221 1.06273,-3.76647 3.01495,-4.0534 z m -14.78008,2.17072 c 1.95221,-0.28693 3.76647,1.06383 4.0523,3.01494 0.28692,1.95221 -1.06274,3.76648 -3.01495,4.05341 -1.95331,0.28692 -3.76648,-1.06274 -4.0534,-3.01495 -0.28693,-1.95221 1.06384,-3.76758 3.01605,-4.0534 z" />
      <path
         inkscape:export-ydpi="90"
         inkscape:export-xdpi="90"
         inkscape:export-filename="/Users/neal/Desktop/comedy/sprite.png"
         style="fill:#008000"
         id="path5470"
         d="m 527.06085,716.59536 c -12.01123,-1.26358 -22.77101,7.45018 -24.0346,19.46031 -0.32003,3.04143 0.01,6.0001 0.86078,8.74688 9.31522,1.48981 17.14724,7.35086 21.35404,15.39476 10.8591,-0.2185 20.11582,-8.48422 21.28009,-19.56735 1.26358,-12.01123 -7.44908,-22.77212 -19.46031,-24.0346 z m 2.31749,15.23916 c 0.20747,-1.96214 1.96325,-3.38574 3.92649,-3.17937 1.96104,0.20636 3.38354,1.96324 3.17938,3.92649 -0.20747,1.96214 -1.96325,3.38464 -3.92649,3.17938 -1.96325,-0.20527 -3.38685,-1.96435 -3.17938,-3.9265 z m -14.85843,-1.56265 c 0.20747,-1.96214 1.96545,-3.38574 3.92759,-3.17938 1.96215,0.20637 3.38465,1.96435 3.17938,3.9265 -0.20747,1.96214 -1.96435,3.38574 -3.9276,3.17827 -1.96324,-0.20526 -3.38464,-1.96324 -3.17937,-3.92539 z m 8.84178,21.50302 c -6.8984,-0.72505 -12.05206,-5.47701 -11.51242,-10.61301 l 24.97925,2.62649 c -0.54074,5.136 -6.57064,8.71266 -13.46683,7.98652 z" />
      <path
         inkscape:export-ydpi="90"
         inkscape:export-xdpi="90"
         inkscape:export-filename="/Users/neal/Desktop/comedy/sprite.png"
         style="fill:#008000"
         id="path5472"
         d="m 498.74993,799.46997 c 14.18746,0.18319 25.83893,-11.17031 26.02322,-25.35888 0.1843,-14.18857 -11.17031,-25.84003 -25.35888,-26.02433 -14.18856,-0.18429 -25.84113,11.16921 -26.02432,25.35778 -0.1843,14.18967 11.17031,25.84113 25.35998,26.02543 z m 9.26776,-37.94507 c 2.31749,0.0298 4.17038,1.93345 4.14279,4.25205 -0.0298,2.31749 -1.93345,4.17259 -4.25205,4.14279 -2.31749,-0.0298 -4.17369,-1.93345 -4.14168,-4.25094 0.0309,-2.3197 1.93234,-4.17369 4.25094,-4.1439 z m 5.75289,17.32601 c -0.0773,6.06742 -6.74721,10.89994 -14.89485,10.794 -8.14874,-0.10484 -14.69069,-5.10952 -14.61123,-11.17693 l 29.50608,0.38293 z m -23.30403,-17.55334 c 2.31749,0.0298 4.17148,1.93345 4.14169,4.25204 -0.0298,2.3186 -1.93235,4.17259 -4.25094,4.14169 -2.3197,-0.0298 -4.17259,-1.93345 -4.1428,-4.25094 0.0298,-2.31859 1.93456,-4.17369 4.25205,-4.14279 z" />
    </g>
    <g
       style="fill:#d40000"
       id="g5474"
       transform="matrix(1.5,0,0,1.5090909,1157.3702,752.08088)"
       inkscape:export-filename="/Users/neal/Desktop/comedy/sprite.png"
       inkscape:export-xdpi="90"
       inkscape:export-ydpi="90">
	<path
   style="fill:#d40000"
   d="m -604.43464,-3.5781444 c -1.924,-6.374 -7.835,-11.0179996 -14.836,-11.0179996 -2.307,0 -4.487,0.518 -6.454,1.421 -5.038,-6.347 -12.814,-10.421 -21.546,-10.421 -14.39,0 -26.19,11.053 -27.392,25.1319996 -7.389,0.932 -13.108,7.226 -13.108,14.8680004 0,8.284 6.716,15 15,15 h 68 c 9.389,0 17,-7.835 17,-17.5 0,-9.5480004 -7.432,-17.2960004 -16.664,-17.4820004 z m -0.336,30.9820004 h -68 c -6.065,0 -11,-4.935 -11,-11 0,-5.522 4.131,-10.2080004 9.609,-10.8990004 l 3.21,-0.405 0.275,-3.223 c 1.028,-12.0409996 11.309,-21.4729996 23.406,-21.4729996 7.208,0 13.919,3.247 18.413,8.908 l 1.951,2.4579996 2.852,-1.31 c 1.525,-0.7009996 3.135,-1.0559996 4.784,-1.0559996 5.028,0 9.554,3.3609996 11.007,8.1729996 l 0.84,2.78500004 2.908,0.059 c 7.028,0.141 12.745,6.18999996 12.745,13.48300036 0,7.444 -5.832,13.5 -13,13.5 z"
   id="path5476" />

</g>
  </g>
</svg>
